{"glyphs":{"0":{"ha":1396,"x_min":156,"x_max":1240,"o":"m 918 1047 l 1240 725 l 1022 507 l 1239 292 l 913 -35 l 375 503 l 918 1047 m 965 699 l 1039 772 l 965 846 l 892 772 l 965 699 m 156 721 l 375 503 l 156 283 l 156 721 z "},"1":{"ha":1288,"x_min":29,"x_max":1258,"o":"m 29 721 l 644 1169 l 1258 721 l 1024 0 l 264 0 l 29 721 m 644 64 l 975 64 l 1181 696 l 644 1088 l 107 696 l 313 64 l 644 525 l 644 64 z "},"2":{"ha":1408,"x_min":74,"x_max":1335,"o":"m 831 103 q 855 135 838 122 q 896 149 872 149 q 944 128 924 149 q 964 78 964 107 q 944 30 964 50 q 896 10 924 10 q 857 21 874 10 q 832 50 840 32 l 578 50 q 553 21 571 32 q 515 10 535 10 q 465 30 486 10 q 444 78 444 50 q 465 128 444 107 q 515 149 486 149 q 554 135 536 149 q 579 103 572 122 l 831 103 m 251 631 q 272 680 251 660 q 321 700 292 700 q 369 680 349 700 q 390 631 390 660 q 369 582 390 603 q 321 561 349 561 q 272 582 292 561 q 251 631 251 603 m 208 317 q 106 349 138 317 q 74 451 74 381 l 74 810 q 106 913 74 881 q 208 944 138 944 l 290 944 l 290 1018 q 332 1153 290 1111 q 467 1194 374 1194 l 943 1194 q 1078 1153 1036 1194 q 1119 1018 1119 1111 l 1119 944 l 1201 944 q 1303 913 1272 944 q 1335 810 1335 881 l 1335 451 q 1303 349 1335 381 q 1201 317 1272 317 l 1119 317 l 1119 -82 q 1078 -217 1119 -175 q 943 -258 1036 -258 l 467 -258 q 332 -217 374 -258 q 290 -82 290 -175 l 290 317 l 208 317 m 1018 631 q 1039 680 1018 660 q 1089 700 1060 700 q 1137 680 1117 700 q 1157 631 1157 660 q 1137 582 1157 603 q 1089 561 1117 561 q 1039 582 1060 561 q 1018 631 1018 603 m 435 376 q 488 392 471 376 q 504 446 504 407 l 504 815 q 488 869 504 853 q 435 886 471 886 l 208 886 q 154 869 171 886 q 138 815 138 853 l 138 446 q 154 392 138 407 q 208 376 171 376 l 435 376 m 357 -90 q 381 -172 357 -147 q 464 -197 406 -197 l 946 -197 q 1028 -172 1004 -197 q 1053 -90 1053 -147 l 1053 317 l 976 317 q 874 349 906 317 q 842 451 842 381 l 842 810 q 874 913 842 881 q 976 944 906 944 l 1053 944 l 1053 1026 q 1028 1108 1053 1083 q 946 1133 1004 1133 l 464 1133 q 381 1108 406 1133 q 357 1026 357 1083 l 357 944 l 433 944 q 535 913 504 944 q 567 810 567 881 l 567 451 q 535 349 567 381 q 433 317 504 317 l 357 317 l 357 -90 m 1201 376 q 1254 392 1238 376 q 1271 446 1271 407 l 1271 815 q 1254 869 1271 853 q 1201 886 1238 886 l 975 886 q 922 869 938 886 q 906 815 906 853 l 906 446 q 922 392 906 407 q 975 376 938 376 l 1201 376 z "},"3":{"ha":1389,"x_min":29,"x_max":1360,"o":"m 29 576 l 361 1153 l 1028 1153 l 1360 576 l 1028 0 l 361 0 l 29 576 m 678 583 l 990 64 l 1286 576 l 990 1089 l 399 1089 l 103 576 l 399 64 l 678 583 z "},"4":{"ha":1190,"x_min":74,"x_max":1117,"o":"m 74 581 q 115 783 74 689 q 226 949 156 878 q 392 1060 297 1019 q 596 1101 488 1101 q 799 1060 704 1101 q 964 949 893 1019 q 1076 783 1035 878 q 1117 581 1117 689 q 1076 378 1117 472 q 964 213 1035 283 q 799 101 893 142 q 596 60 704 60 q 392 101 488 60 q 226 213 297 142 q 115 378 156 283 q 74 581 74 472 m 381 492 l 293 581 l 381 668 l 381 796 l 508 796 l 597 885 l 685 796 l 813 796 l 813 668 l 900 581 l 813 492 l 813 365 l 685 365 l 597 276 l 508 365 l 381 365 l 381 492 m 596 119 q 774 156 690 119 q 919 254 857 192 q 1017 401 981 317 q 1053 581 1053 485 q 1017 760 1053 676 q 919 907 981 844 q 774 1006 857 969 q 596 1042 690 1042 q 417 1006 500 1042 q 272 907 333 969 q 174 760 210 844 q 138 581 138 676 q 174 401 138 485 q 272 254 210 317 q 417 156 333 192 q 596 119 500 119 z "},"5":{"ha":1215,"x_min":74,"x_max":1140,"o":"m 229 421 l 74 576 l 229 732 l 229 954 l 451 954 l 607 1110 l 763 954 l 985 954 l 985 732 l 1140 576 l 985 421 l 985 199 l 763 199 l 607 43 l 451 199 l 229 199 l 229 421 z "},"6":{"ha":1190,"x_min":74,"x_max":1117,"o":"m 74 576 q 115 779 74 685 q 226 944 156 874 q 392 1056 297 1015 q 596 1097 488 1097 q 799 1056 704 1097 q 964 944 893 1015 q 1076 779 1035 874 q 1117 576 1117 685 q 1076 374 1117 468 q 964 208 1035 279 q 799 97 893 138 q 596 56 704 56 q 392 97 488 56 q 226 208 297 138 q 115 374 156 279 q 74 576 74 468 m 549 574 l 378 743 l 425 790 l 596 621 l 764 789 l 813 742 l 643 574 l 813 403 l 767 356 l 596 525 l 426 357 l 379 404 l 549 574 m 596 115 q 774 151 690 115 q 919 250 857 188 q 1017 397 981 313 q 1053 576 1053 481 q 1017 756 1053 672 q 919 903 981 840 q 774 1001 857 965 q 596 1038 690 1038 q 417 1001 500 1038 q 272 903 333 965 q 174 756 210 840 q 138 576 138 672 q 174 397 138 481 q 272 250 210 313 q 417 151 333 188 q 596 115 500 115 z "},"7":{"ha":1253,"x_min":29,"x_max":1224,"o":"m 29 415 l 147 933 l 626 1165 l 1107 933 l 1224 415 l 893 0 l 361 0 l 29 415 m 392 65 l 613 549 l 863 65 l 1154 433 l 1051 890 l 626 1096 l 203 890 l 99 433 l 392 65 z "},"8":{"ha":1190,"x_min":74,"x_max":1117,"o":"m 525 581 q 546 630 525 610 q 596 650 567 650 q 644 630 624 650 q 664 581 664 610 q 644 532 664 553 q 596 511 624 511 q 546 532 567 511 q 525 581 525 553 m 74 581 q 115 783 74 689 q 226 949 156 878 q 392 1060 297 1019 q 596 1101 488 1101 q 799 1060 704 1101 q 964 949 893 1019 q 1076 783 1035 878 q 1117 581 1117 689 q 1076 378 1117 472 q 964 213 1035 283 q 799 101 893 142 q 596 60 704 60 q 392 101 488 60 q 226 213 297 142 q 115 378 156 283 q 74 581 74 472 m 596 119 q 774 156 690 119 q 919 254 857 192 q 1017 401 981 317 q 1053 581 1053 485 q 1017 760 1053 676 q 919 907 981 844 q 774 1006 857 969 q 596 1042 690 1042 q 417 1006 500 1042 q 272 907 333 969 q 174 760 210 844 q 138 581 138 676 q 174 401 138 485 q 272 254 210 317 q 417 156 333 192 q 596 119 500 119 z "},"9":{"ha":1189,"x_min":74,"x_max":1114,"o":"m 593 60 q 392 101 486 60 q 226 213 297 142 q 115 378 156 283 q 74 581 74 472 q 115 782 74 688 q 226 947 156 876 q 392 1059 297 1018 q 593 1100 486 1100 q 795 1059 700 1100 q 961 947 890 1018 q 1073 782 1032 876 q 1114 581 1114 688 q 1073 378 1114 472 q 961 213 1032 283 q 795 101 890 142 q 593 60 700 60 m 494 339 l 594 239 l 694 339 l 835 339 l 835 481 l 935 581 l 835 681 l 835 822 l 694 822 l 594 922 l 494 822 l 354 822 l 354 681 l 254 581 l 354 481 l 354 339 l 494 339 z "},"\u0000":{"ha":0,"x_min":0,"x_max":0,"o":""}," ":{"ha":411,"x_min":0,"x_max":0,"o":""},"!":{"ha":226,"x_min":56,"x_max":174,"o":"m 56 50 q 73 93 56 75 q 115 111 90 111 q 156 93 139 111 q 174 50 174 75 q 156 9 174 26 q 115 -8 139 -8 q 73 9 90 -8 q 56 50 56 26 m 78 850 l 78 1153 l 147 1153 l 147 850 l 138 215 l 89 215 l 78 850 z "},"\"":{"ha":354,"x_min":65,"x_max":289,"o":"m 65 1194 l 135 1194 l 135 869 l 65 869 l 65 1194 m 219 1194 l 289 1194 l 289 869 l 219 869 l 219 1194 z "},"#":{"ha":625,"x_min":36,"x_max":582,"o":"m 146 288 l 36 288 l 40 349 l 153 349 l 186 636 l 75 636 l 79 697 l 193 697 l 232 1014 l 301 1014 l 263 697 l 404 697 l 443 1014 l 513 1014 l 472 697 l 582 697 l 579 636 l 465 636 l 432 349 l 543 349 l 539 288 l 425 288 l 392 0 l 324 0 l 356 288 l 214 288 l 182 0 l 113 0 l 146 288 m 364 349 l 397 636 l 256 636 l 222 349 l 364 349 z "},"$":{"ha":713,"x_min":65,"x_max":647,"o":"m 135 364 l 135 171 q 159 89 135 114 q 242 64 183 64 l 471 64 q 554 89 529 64 q 579 171 579 114 l 579 457 q 554 540 579 515 q 471 565 529 565 l 244 565 q 110 607 151 565 q 68 742 68 649 l 68 976 q 110 1111 68 1069 q 244 1153 151 1153 l 319 1153 l 319 1296 l 386 1296 l 386 1153 l 457 1153 q 592 1111 550 1153 q 633 976 633 1069 l 633 790 l 565 790 l 565 982 q 540 1064 565 1039 q 457 1089 515 1089 l 244 1089 q 162 1064 186 1089 q 138 982 138 1039 l 138 736 q 162 653 138 678 q 244 629 186 629 l 471 629 q 606 587 564 629 q 647 451 647 544 l 647 176 q 606 42 647 83 q 471 0 564 0 l 386 0 l 386 -143 l 319 -143 l 319 0 l 242 0 q 107 42 149 0 q 65 176 65 83 l 65 364 l 135 364 z "},"%":{"ha":1338,"x_min":65,"x_max":1261,"o":"m 889 1167 l 947 1144 l 433 -14 l 376 8 l 889 1167 m 796 615 q 835 744 796 704 q 964 785 875 785 l 1092 785 q 1221 744 1181 785 q 1261 615 1261 704 l 1261 169 q 1221 40 1261 81 q 1092 0 1181 0 l 964 0 q 835 40 875 0 q 796 169 796 81 l 796 615 m 65 983 q 106 1113 65 1072 q 235 1153 146 1153 l 361 1153 q 490 1113 450 1153 q 531 983 531 1072 l 531 538 q 490 408 531 449 q 361 368 450 368 l 235 368 q 106 408 146 368 q 65 538 65 449 l 65 983 m 1094 58 q 1174 82 1150 58 q 1197 161 1197 106 l 1197 624 q 1174 703 1197 679 q 1094 726 1150 726 l 961 726 q 882 703 906 726 q 858 624 858 679 l 858 161 q 882 82 858 106 q 961 58 906 58 l 1094 58 m 365 426 q 443 450 419 426 q 467 529 467 474 l 467 992 q 443 1071 467 1047 q 365 1094 419 1094 l 231 1094 q 153 1071 176 1094 q 129 992 129 1047 l 129 529 q 153 450 129 474 q 231 426 176 426 l 365 426 z "},"&":{"ha":813,"x_min":76,"x_max":786,"o":"m 451 1024 q 426 1106 451 1081 q 344 1131 401 1131 l 253 1131 q 170 1106 194 1131 q 146 1024 146 1081 l 146 843 q 170 761 146 786 q 253 736 194 736 l 596 736 l 596 944 l 664 944 l 664 736 l 786 736 l 786 675 l 664 675 l 664 176 q 622 42 664 83 q 488 0 581 0 l 253 0 q 118 42 160 0 q 76 176 76 83 l 76 561 q 136 706 76 667 q 76 850 76 744 l 76 1018 q 118 1153 76 1111 q 253 1194 160 1194 l 343 1194 q 478 1153 436 1194 q 519 1018 519 1111 l 519 867 l 451 867 l 451 1024 m 253 675 q 170 650 194 675 q 146 568 146 625 l 146 171 q 170 89 146 114 q 253 64 194 64 l 488 64 q 571 89 546 64 q 596 171 596 114 l 596 675 l 253 675 z "},"'":{"ha":171,"x_min":51,"x_max":119,"o":"m 51 1194 l 119 1194 l 119 869 l 51 869 l 51 1194 z "},"(":{"ha":444,"x_min":76,"x_max":397,"o":"m 247 -61 q 117 -21 157 -61 q 76 110 76 19 l 76 1024 q 117 1154 76 1114 q 247 1194 157 1194 l 397 1194 l 397 1133 l 257 1133 q 171 1108 196 1133 q 146 1022 146 1082 l 146 111 q 171 26 146 51 q 257 0 196 0 l 397 0 l 397 -61 l 247 -61 z "},")":{"ha":444,"x_min":47,"x_max":368,"o":"m 47 0 l 188 0 q 273 26 247 0 q 299 111 299 51 l 299 1022 q 273 1108 299 1082 q 188 1133 247 1133 l 47 1133 l 47 1194 l 197 1194 q 328 1154 288 1194 q 368 1024 368 1114 l 368 110 q 328 -21 368 19 q 197 -61 288 -61 l 47 -61 l 47 0 z "},"*":{"ha":494,"x_min":75,"x_max":421,"o":"m 75 836 l 211 972 l 75 1108 l 111 1146 l 221 1035 l 221 1190 l 274 1190 l 274 1035 l 383 1146 l 421 1108 l 285 972 l 421 836 l 383 800 l 274 910 l 274 754 l 221 754 l 221 910 l 111 800 l 75 836 z "},"+":{"ha":739,"x_min":47,"x_max":692,"o":"m 47 676 l 333 676 l 333 849 l 403 849 l 403 676 l 692 676 l 692 615 l 403 615 l 403 443 l 333 443 l 333 615 l 47 615 l 47 676 z "},",":{"ha":208,"x_min":-111,"x_max":163,"o":"m 107 138 l 163 104 l -56 -271 l -111 -237 l 107 138 z "},"-":{"ha":522,"x_min":43,"x_max":479,"o":"m 43 503 l 479 503 l 479 442 l 43 442 l 43 503 z "},".":{"ha":225,"x_min":44,"x_max":163,"o":"m 44 50 q 62 93 44 75 q 104 111 79 111 q 145 93 128 111 q 163 50 163 75 q 145 9 163 26 q 104 -8 128 -8 q 62 9 79 -8 q 44 50 44 26 z "},"/":{"ha":428,"x_min":42,"x_max":407,"o":"m 340 1153 l 407 1153 l 108 -60 l 42 -60 l 340 1153 z "},":":{"ha":239,"x_min":44,"x_max":163,"o":"m 44 50 q 62 93 44 75 q 104 111 79 111 q 145 93 128 111 q 163 50 163 75 q 145 9 163 26 q 104 -8 128 -8 q 62 9 79 -8 q 44 50 44 26 m 44 576 q 62 619 44 601 q 104 636 79 636 q 145 619 128 636 q 163 576 163 601 q 145 535 163 553 q 104 518 128 518 q 62 535 79 518 q 44 576 44 553 z "},";":{"ha":247,"x_min":-101,"x_max":163,"o":"m 44 576 q 62 619 44 601 q 104 636 79 636 q 145 619 128 636 q 163 576 163 601 q 145 535 163 553 q 104 518 128 518 q 62 535 79 518 q 44 576 44 553 m 107 138 l 163 104 l -46 -253 l -101 -219 l 107 138 z "},"<":{"ha":582,"x_min":76,"x_max":506,"o":"m 76 522 l 506 738 l 506 667 l 146 486 l 506 304 l 506 233 l 76 450 l 76 522 z "},"=":{"ha":739,"x_min":47,"x_max":692,"o":"m 47 771 l 692 771 l 692 710 l 47 710 l 47 771 m 47 583 l 692 583 l 692 522 l 47 522 l 47 583 z "},">":{"ha":582,"x_min":76,"x_max":506,"o":"m 76 304 l 436 486 l 76 667 l 76 738 l 506 522 l 506 450 l 76 233 l 76 304 z "},"?":{"ha":689,"x_min":47,"x_max":624,"o":"m 214 50 q 231 93 214 75 q 274 111 249 111 q 315 93 297 111 q 333 50 333 75 q 315 9 333 26 q 274 -8 297 -8 q 231 9 249 -8 q 214 50 214 26 m 239 290 q 281 425 239 383 q 415 467 322 467 l 447 467 q 531 492 506 467 q 556 574 556 517 l 556 982 q 531 1064 556 1039 q 447 1089 506 1089 l 224 1089 q 141 1064 165 1089 q 117 982 117 1039 l 117 728 l 47 728 l 47 976 q 89 1111 47 1069 q 224 1153 131 1153 l 447 1153 q 582 1111 540 1153 q 624 976 624 1069 l 624 579 q 582 444 624 486 q 447 403 540 403 l 415 403 q 332 378 357 403 q 307 296 307 353 l 307 215 l 239 215 l 239 290 z "},"@":{"ha":1171,"x_min":100,"x_max":1078,"o":"m 507 883 q 428 859 453 883 q 404 779 404 835 l 404 685 l 338 685 l 338 774 q 378 904 338 864 q 508 944 418 944 l 669 944 q 800 904 760 944 q 840 774 840 864 l 840 610 l 907 610 q 1038 569 997 610 q 1078 439 1078 529 l 1078 -65 q 1038 -196 1078 -156 q 907 -236 997 -236 l 271 -236 q 140 -196 181 -236 q 100 -65 100 -156 l 100 1024 q 140 1154 100 1114 q 271 1194 181 1194 l 989 1194 l 989 1133 l 269 1133 q 190 1109 214 1133 q 165 1029 165 1085 l 165 -71 q 190 -151 165 -126 q 269 -175 214 -175 l 908 -175 q 987 -151 963 -175 q 1011 -71 1011 -126 l 1011 446 q 987 524 1011 500 q 908 549 963 549 l 840 549 l 840 171 q 800 40 840 81 q 669 0 760 0 l 508 0 q 378 40 418 0 q 338 171 338 81 l 338 439 q 378 569 338 529 q 508 610 418 610 l 774 610 l 774 779 q 749 859 774 835 q 669 883 725 883 l 507 883 m 507 549 q 428 524 453 549 q 404 446 404 500 l 404 165 q 428 85 404 110 q 507 61 453 61 l 669 61 q 749 85 725 61 q 774 165 774 110 l 774 549 l 507 549 z "},"A":{"ha":728,"x_min":10,"x_max":718,"o":"m 311 1153 l 414 1153 l 718 0 l 647 0 l 543 397 l 185 397 l 81 0 l 10 0 l 311 1153 m 526 461 l 364 1083 l 201 461 l 526 461 z "},"B":{"ha":724,"x_min":76,"x_max":658,"o":"m 76 1153 l 429 1153 q 564 1111 522 1153 q 606 976 606 1069 l 606 742 q 565 615 606 654 q 658 451 658 585 l 658 176 q 617 42 658 83 q 482 0 575 0 l 76 0 l 76 1153 m 482 64 q 565 89 540 64 q 590 171 590 114 l 590 457 q 565 540 590 515 q 482 565 540 565 l 268 565 l 268 629 l 429 629 q 513 653 488 629 q 538 736 538 678 l 538 982 q 513 1064 538 1039 q 429 1089 488 1089 l 146 1089 l 146 64 l 482 64 z "},"C":{"ha":724,"x_min":76,"x_max":660,"o":"m 660 363 l 660 176 q 617 42 660 83 q 482 0 575 0 l 254 0 q 119 42 161 0 q 76 176 76 83 l 76 976 q 119 1111 76 1069 q 254 1153 161 1153 l 482 1153 q 617 1111 575 1153 q 660 976 660 1069 l 660 790 l 590 790 l 590 982 q 565 1064 590 1039 q 483 1089 540 1089 l 253 1089 q 171 1064 196 1089 q 146 982 146 1039 l 146 171 q 171 89 146 114 q 253 64 196 64 l 483 64 q 565 89 540 64 q 590 171 590 114 l 590 363 l 660 363 z "},"D":{"ha":732,"x_min":76,"x_max":658,"o":"m 76 1153 l 482 1153 q 617 1111 575 1153 q 658 976 658 1069 l 658 176 q 617 42 658 83 q 482 0 575 0 l 76 0 l 76 1153 m 482 64 q 565 89 540 64 q 590 171 590 114 l 590 982 q 565 1064 590 1039 q 482 1089 540 1089 l 146 1089 l 146 64 l 482 64 z "},"E":{"ha":647,"x_min":76,"x_max":603,"o":"m 146 171 q 170 89 146 114 q 253 64 194 64 l 603 64 l 603 0 l 253 0 q 118 42 160 0 q 76 176 76 83 l 76 976 q 118 1111 76 1069 q 253 1153 160 1153 l 589 1153 l 589 1089 l 253 1089 q 170 1064 194 1089 q 146 982 146 1039 l 146 629 l 438 629 l 438 565 l 146 565 l 146 171 z "},"F":{"ha":593,"x_min":76,"x_max":589,"o":"m 76 976 q 118 1111 76 1069 q 253 1153 160 1153 l 589 1153 l 589 1089 l 251 1089 q 170 1064 194 1089 q 146 983 146 1039 l 146 629 l 438 629 l 438 565 l 146 565 l 146 0 l 76 0 l 76 976 z "},"G":{"ha":729,"x_min":74,"x_max":656,"o":"m 265 629 l 656 629 l 656 176 q 614 42 656 83 q 479 0 572 0 l 250 0 q 115 42 157 0 q 74 176 74 83 l 74 976 q 115 1111 74 1069 q 250 1153 157 1153 l 479 1153 q 614 1111 572 1153 q 656 976 656 1069 l 656 790 l 586 790 l 586 982 q 562 1064 586 1039 q 479 1089 538 1089 l 250 1089 q 167 1064 192 1089 q 142 982 142 1039 l 142 171 q 167 89 142 114 q 250 64 192 64 l 479 64 q 562 89 538 64 q 586 171 586 114 l 586 565 l 265 565 l 265 629 z "},"H":{"ha":735,"x_min":76,"x_max":660,"o":"m 76 1153 l 146 1153 l 146 629 l 590 629 l 590 1153 l 660 1153 l 660 0 l 590 0 l 590 565 l 146 565 l 146 0 l 76 0 l 76 1153 z "},"I":{"ha":222,"x_min":76,"x_max":146,"o":"m 76 1153 l 146 1153 l 146 0 l 76 0 l 76 1153 z "},"J":{"ha":669,"x_min":61,"x_max":594,"o":"m 131 389 l 131 171 q 156 89 131 114 q 238 64 181 64 l 418 64 q 500 89 475 64 q 525 171 525 114 l 525 1153 l 594 1153 l 594 176 q 552 42 594 83 q 417 0 510 0 l 239 0 q 103 42 146 0 q 61 176 61 83 l 61 389 l 131 389 z "},"K":{"ha":704,"x_min":76,"x_max":715,"o":"m 76 1153 l 146 1153 l 146 132 l 628 1153 l 703 1153 l 439 596 l 715 0 l 640 0 l 401 517 l 157 0 l 76 0 l 76 1153 z "},"Ĳ":{"ha":704,"x_min":76,"x_max":715,"o":"m 76 1153 l 146 1153 l 146 132 l 628 1153 l 703 1153 l 439 596 l 715 0 l 640 0 l 401 517 l 157 0 l 76 0 l 76 1153 z "},"L":{"ha":607,"x_min":76,"x_max":597,"o":"m 247 0 q 117 40 157 0 q 76 171 76 81 l 76 1153 l 146 1153 l 146 169 q 170 89 146 114 q 251 64 194 64 l 597 64 l 597 0 l 247 0 z "},"M":{"ha":981,"x_min":76,"x_max":904,"o":"m 146 975 l 146 0 l 76 0 l 76 1153 l 157 1153 l 490 172 l 824 1153 l 904 1153 l 904 0 l 835 0 l 835 975 l 521 56 l 458 56 l 146 975 z "},"N":{"ha":742,"x_min":76,"x_max":665,"o":"m 76 1153 l 157 1153 l 596 129 l 596 1153 l 665 1153 l 665 0 l 579 0 l 146 1014 l 146 0 l 76 0 l 76 1153 z "},"O":{"ha":733,"x_min":75,"x_max":657,"o":"m 75 976 q 117 1111 75 1069 q 251 1153 158 1153 l 481 1153 q 615 1111 574 1153 q 657 976 657 1069 l 657 176 q 615 42 657 83 q 481 0 574 0 l 251 0 q 117 42 158 0 q 75 176 75 83 l 75 976 m 481 64 q 563 89 539 64 q 588 171 588 114 l 588 982 q 563 1064 588 1039 q 481 1089 539 1089 l 251 1089 q 168 1064 193 1089 q 143 982 143 1039 l 143 171 q 168 89 143 114 q 251 64 193 64 l 481 64 z "},"P":{"ha":721,"x_min":76,"x_max":658,"o":"m 76 1153 l 482 1153 q 617 1111 575 1153 q 658 976 658 1069 l 658 575 q 617 440 658 482 q 482 397 575 397 l 268 397 l 268 461 l 482 461 q 565 486 540 461 q 590 569 590 511 l 590 982 q 565 1064 590 1039 q 482 1089 540 1089 l 146 1089 l 146 0 l 76 0 l 76 1153 z "},"Q":{"ha":728,"x_min":72,"x_max":654,"o":"m 386 0 l 249 0 q 114 42 156 0 q 72 176 72 83 l 72 976 q 114 1111 72 1069 q 249 1153 156 1153 l 478 1153 q 613 1111 571 1153 q 654 976 654 1069 l 654 176 q 613 42 654 83 q 478 0 571 0 l 447 0 l 447 -229 l 386 -229 l 386 0 m 386 208 l 447 208 l 447 64 l 478 64 q 560 89 536 64 q 585 171 585 114 l 585 982 q 560 1064 585 1039 q 478 1089 536 1089 l 249 1089 q 165 1064 190 1089 q 140 982 140 1039 l 140 171 q 165 89 140 114 q 249 64 190 64 l 386 64 l 386 208 z "},"R":{"ha":722,"x_min":76,"x_max":658,"o":"m 76 1153 l 426 1153 q 561 1111 519 1153 q 603 976 603 1069 l 603 742 q 564 617 603 656 q 658 451 658 586 l 658 0 l 590 0 l 590 457 q 565 540 590 515 q 482 565 540 565 l 268 565 l 268 629 l 426 629 q 510 653 485 629 q 535 736 535 678 l 535 982 q 510 1064 535 1039 q 426 1089 485 1089 l 146 1089 l 146 0 l 76 0 l 76 1153 z "},"S":{"ha":713,"x_min":65,"x_max":647,"o":"m 135 364 l 135 171 q 159 89 135 114 q 242 64 183 64 l 471 64 q 554 89 529 64 q 579 171 579 114 l 579 457 q 554 540 579 515 q 471 565 529 565 l 244 565 q 110 607 151 565 q 68 742 68 649 l 68 976 q 110 1111 68 1069 q 244 1153 151 1153 l 457 1153 q 592 1111 550 1153 q 633 976 633 1069 l 633 790 l 565 790 l 565 982 q 540 1064 565 1039 q 457 1089 515 1089 l 244 1089 q 162 1064 186 1089 q 138 982 138 1039 l 138 736 q 162 653 138 678 q 244 629 186 629 l 471 629 q 606 587 564 629 q 647 451 647 544 l 647 176 q 606 42 647 83 q 471 0 564 0 l 242 0 q 107 42 149 0 q 65 176 65 83 l 65 364 l 135 364 z "},"T":{"ha":688,"x_min":7,"x_max":681,"o":"m 310 1089 l 7 1089 l 7 1153 l 681 1153 l 681 1089 l 378 1089 l 378 0 l 310 0 l 310 1089 z "},"U":{"ha":733,"x_min":76,"x_max":658,"o":"m 144 1153 l 144 171 q 169 89 144 114 q 251 64 194 64 l 482 64 q 564 89 539 64 q 589 171 589 114 l 589 1153 l 658 1153 l 658 176 q 617 42 658 83 q 482 0 575 0 l 253 0 q 118 42 160 0 q 76 176 76 83 l 76 1153 l 144 1153 z "},"V":{"ha":761,"x_min":26,"x_max":735,"o":"m 26 1153 l 97 1153 l 381 69 l 664 1153 l 735 1153 l 432 0 l 329 0 l 26 1153 z "},"W":{"ha":1088,"x_min":26,"x_max":1060,"o":"m 26 1153 l 96 1153 l 301 69 l 494 1154 l 592 1154 l 785 69 l 990 1153 l 1060 1153 l 840 0 l 731 0 l 543 1051 l 356 0 l 246 0 l 26 1153 z "},"X":{"ha":629,"x_min":26,"x_max":603,"o":"m 279 596 l 43 1153 l 118 1153 l 315 682 l 513 1153 l 586 1153 l 353 596 l 603 0 l 529 0 l 315 510 l 101 0 l 26 0 l 279 596 z "},"Y":{"ha":699,"x_min":65,"x_max":633,"o":"m 317 324 l 242 324 q 107 366 149 324 q 65 501 65 408 l 65 1153 l 135 1153 l 135 496 q 159 413 135 438 q 242 388 183 388 l 457 388 q 540 413 515 388 q 565 496 565 438 l 565 1153 l 633 1153 l 633 501 q 592 366 633 408 q 457 324 550 324 l 385 324 l 385 0 l 317 0 l 317 324 z "},"Z":{"ha":654,"x_min":42,"x_max":613,"o":"m 42 81 l 543 1089 l 47 1089 l 47 1153 l 610 1153 l 610 1072 l 107 64 l 613 64 l 613 0 l 42 0 l 42 81 z "},"[":{"ha":413,"x_min":76,"x_max":365,"o":"m 76 1194 l 365 1194 l 365 1133 l 146 1133 l 146 0 l 365 0 l 365 -61 l 76 -61 l 76 1194 z "},"\\":{"ha":428,"x_min":21,"x_max":386,"o":"m 21 1153 l 88 1153 l 386 -60 l 319 -60 l 21 1153 z "},"]":{"ha":413,"x_min":47,"x_max":336,"o":"m 47 0 l 267 0 l 267 1133 l 47 1133 l 47 1194 l 336 1194 l 336 -61 l 47 -61 l 47 0 z "},"^":{"ha":711,"x_min":31,"x_max":681,"o":"m 321 1153 l 401 1153 l 681 676 l 628 643 l 361 1096 l 83 643 l 31 676 l 321 1153 z "},"_":{"ha":894,"x_min":0,"x_max":894,"o":"m 0 -57 l 894 -57 l 894 -118 l 0 -118 l 0 -57 z "},"`":{"ha":538,"x_min":114,"x_max":374,"o":"m 144 919 l 374 788 l 344 735 l 114 865 l 144 919 z "},"a":{"ha":650,"x_min":69,"x_max":581,"o":"m 240 0 q 110 40 150 0 q 69 171 69 81 l 69 774 q 110 904 69 864 q 240 944 150 944 l 410 944 q 540 904 500 944 q 581 774 581 864 l 581 0 l 514 0 l 514 779 q 490 859 514 835 q 410 883 465 883 l 239 883 q 160 859 185 883 q 136 779 136 835 l 136 165 q 160 85 136 110 q 239 61 185 61 l 438 61 l 438 0 l 240 0 z "},"b":{"ha":657,"x_min":76,"x_max":588,"o":"m 143 1194 l 143 914 q 250 944 178 944 l 417 944 q 547 904 507 944 q 588 774 588 864 l 588 171 q 547 40 588 81 q 417 0 507 0 l 247 0 q 117 40 157 0 q 76 171 76 81 l 76 1194 l 143 1194 m 417 61 q 497 85 472 61 q 521 165 521 110 l 521 779 q 497 859 521 835 q 417 883 472 883 l 246 883 q 167 859 192 883 q 143 779 143 835 l 143 165 q 167 85 143 110 q 246 61 192 61 l 417 61 z "},"c":{"ha":647,"x_min":71,"x_max":582,"o":"m 582 296 l 582 171 q 542 40 582 81 q 411 0 501 0 l 242 0 q 111 40 151 0 q 71 171 71 81 l 71 774 q 111 904 71 864 q 242 944 151 944 l 411 944 q 542 904 501 944 q 582 774 582 864 l 582 649 l 515 649 l 515 779 q 491 859 515 835 q 411 883 467 883 l 240 883 q 162 859 186 883 q 138 779 138 835 l 138 165 q 162 85 138 110 q 240 61 186 61 l 411 61 q 491 85 467 61 q 515 165 515 110 l 515 296 l 582 296 z "},"d":{"ha":661,"x_min":71,"x_max":585,"o":"m 518 1194 l 585 1194 l 585 171 q 544 40 585 81 q 414 0 504 0 l 242 0 q 111 40 151 0 q 71 171 71 81 l 71 774 q 111 904 71 864 q 242 944 151 944 l 411 944 q 518 914 483 944 l 518 1194 m 414 61 q 494 85 469 61 q 518 165 518 110 l 518 779 q 494 859 518 835 q 414 883 469 883 l 240 883 q 162 859 186 883 q 138 779 138 835 l 138 165 q 162 85 138 110 q 240 61 186 61 l 414 61 z "},"e":{"ha":647,"x_min":71,"x_max":582,"o":"m 211 421 l 411 421 q 491 445 467 421 q 515 524 515 469 l 515 779 q 491 859 515 835 q 411 883 467 883 l 240 883 q 162 859 186 883 q 138 779 138 835 l 138 165 q 162 85 138 110 q 240 61 186 61 l 403 61 q 483 85 458 61 q 507 165 507 110 l 507 293 l 574 293 l 574 171 q 533 40 574 81 q 403 0 493 0 l 242 0 q 111 40 151 0 q 71 171 71 81 l 71 774 q 111 904 71 864 q 242 944 151 944 l 411 944 q 542 904 501 944 q 582 774 582 864 l 582 531 q 542 400 582 440 q 411 360 501 360 l 211 360 l 211 421 z "},"f":{"ha":401,"x_min":6,"x_max":403,"o":"m 76 883 l 6 883 l 6 944 l 76 944 l 76 1024 q 117 1154 76 1114 q 247 1194 157 1194 l 403 1194 l 403 1133 l 247 1133 q 167 1109 192 1133 q 143 1029 143 1085 l 143 944 l 306 944 l 306 883 l 143 883 l 143 0 l 76 0 l 76 883 z "},"g":{"ha":667,"x_min":74,"x_max":638,"o":"m 536 883 q 569 774 569 850 l 569 371 q 529 240 569 281 q 399 200 489 200 l 244 200 q 139 222 178 200 l 139 213 q 163 134 139 158 q 242 110 188 110 l 431 110 q 561 70 521 110 q 601 -56 601 31 l 601 -65 q 561 -196 601 -156 q 431 -236 521 -236 l 244 -236 q 114 -196 154 -236 q 74 -65 74 -156 l 74 -8 l 139 -8 l 139 -71 q 163 -151 139 -126 q 243 -175 188 -175 l 432 -175 q 512 -151 488 -175 q 536 -71 536 -126 l 536 -53 q 512 27 536 3 q 432 51 488 51 l 244 51 q 114 92 154 51 q 74 222 74 132 l 74 774 q 114 904 74 864 q 244 944 154 944 l 638 944 l 638 883 l 536 883 m 400 261 q 480 285 456 261 q 504 364 504 310 l 504 779 q 480 859 504 835 q 400 883 456 883 l 243 883 q 163 859 188 883 q 139 779 139 835 l 139 364 q 163 285 139 310 q 243 261 188 261 l 400 261 z "},"h":{"ha":658,"x_min":76,"x_max":588,"o":"m 76 1194 l 143 1194 l 143 914 q 250 944 178 944 l 417 944 q 547 904 507 944 q 588 774 588 864 l 588 0 l 521 0 l 521 779 q 497 859 521 835 q 417 883 472 883 l 246 883 q 167 859 192 883 q 143 779 143 835 l 143 0 l 76 0 l 76 1194 z "},"i":{"ha":226,"x_min":53,"x_max":174,"o":"m 81 944 l 146 944 l 146 0 l 81 0 l 81 944 m 53 1117 q 70 1158 53 1140 q 114 1176 88 1176 q 156 1158 138 1176 q 174 1117 174 1140 q 156 1074 174 1092 q 114 1056 138 1056 q 70 1074 88 1056 q 53 1117 53 1092 z "},"j":{"ha":219,"x_min":-114,"x_max":168,"o":"m -114 -175 l -28 -175 q 52 -151 28 -175 q 76 -71 76 -126 l 76 944 l 143 944 l 143 -65 q 103 -196 143 -156 q -28 -236 63 -236 l -114 -236 l -114 -175 m 47 1117 q 65 1158 47 1140 q 108 1176 83 1176 q 151 1158 133 1176 q 168 1117 168 1140 q 151 1074 168 1092 q 108 1056 133 1056 q 65 1074 83 1056 q 47 1117 47 1092 z "},"k":{"ha":636,"x_min":76,"x_max":628,"o":"m 76 1194 l 143 1194 l 143 96 l 593 964 l 593 831 l 408 471 l 628 0 l 557 0 l 371 397 l 165 0 l 76 0 l 76 1194 z "},"l":{"ha":219,"x_min":76,"x_max":143,"o":"m 76 1194 l 143 1194 l 143 0 l 76 0 l 76 1194 z "},"m":{"ha":1090,"x_min":71,"x_max":1019,"o":"m 71 774 q 111 904 71 864 q 242 944 151 944 l 406 944 q 546 889 507 944 q 685 944 583 944 l 849 944 q 979 904 939 944 q 1019 774 1019 864 l 1019 0 l 953 0 l 953 779 q 928 859 953 835 q 850 883 904 883 l 682 883 q 602 859 626 883 q 578 779 578 835 l 578 0 l 513 0 l 513 779 q 488 859 513 835 q 410 883 464 883 l 240 883 q 162 859 186 883 q 138 779 138 835 l 138 0 l 71 0 l 71 774 z "},"n":{"ha":653,"x_min":71,"x_max":582,"o":"m 71 774 q 111 904 71 864 q 242 944 151 944 l 411 944 q 542 904 501 944 q 582 774 582 864 l 582 0 l 515 0 l 515 779 q 491 859 515 835 q 413 883 467 883 l 242 883 q 162 859 186 883 q 138 779 138 835 l 138 0 l 71 0 l 71 774 z "},"o":{"ha":653,"x_min":71,"x_max":582,"o":"m 71 774 q 111 904 71 864 q 242 944 151 944 l 411 944 q 542 904 501 944 q 582 774 582 864 l 582 171 q 542 40 582 81 q 411 0 501 0 l 242 0 q 111 40 151 0 q 71 171 71 81 l 71 774 m 411 61 q 491 85 467 61 q 515 165 515 110 l 515 779 q 491 859 515 835 q 411 883 467 883 l 240 883 q 162 859 186 883 q 138 779 138 835 l 138 165 q 162 85 138 110 q 240 61 186 61 l 411 61 z "},"p":{"ha":658,"x_min":76,"x_max":588,"o":"m 76 774 q 117 904 76 864 q 247 944 157 944 l 417 944 q 547 904 507 944 q 588 774 588 864 l 588 171 q 547 40 588 81 q 417 0 507 0 l 250 0 q 143 31 178 0 l 143 -236 l 76 -236 l 76 774 m 417 61 q 497 85 472 61 q 521 165 521 110 l 521 779 q 497 859 521 835 q 417 883 472 883 l 246 883 q 167 859 192 883 q 143 779 143 835 l 143 165 q 167 85 143 110 q 246 61 192 61 l 417 61 z "},"q":{"ha":658,"x_min":71,"x_max":582,"o":"m 515 31 q 408 0 481 0 l 242 0 q 111 40 151 0 q 71 171 71 81 l 71 774 q 111 904 71 864 q 242 944 151 944 l 411 944 q 542 904 501 944 q 582 774 582 864 l 582 -236 l 515 -236 l 515 31 m 411 61 q 491 85 467 61 q 515 165 515 110 l 515 779 q 491 859 515 835 q 411 883 467 883 l 240 883 q 162 859 186 883 q 138 779 138 835 l 138 165 q 162 85 138 110 q 240 61 186 61 l 411 61 z "},"r":{"ha":557,"x_min":75,"x_max":528,"o":"m 75 944 l 357 944 q 488 904 447 944 q 528 774 528 864 l 528 649 l 461 649 l 461 779 q 437 859 461 835 q 358 883 413 883 l 142 883 l 142 0 l 75 0 l 75 944 z "},"s":{"ha":606,"x_min":65,"x_max":540,"o":"m 132 296 l 132 165 q 156 85 132 110 q 235 61 181 61 l 371 61 q 449 85 425 61 q 474 165 474 110 l 474 347 q 449 426 474 401 q 371 450 425 450 l 239 450 q 108 490 149 450 q 68 621 68 531 l 68 774 q 108 904 68 864 q 239 944 149 944 l 356 944 q 486 904 446 944 q 526 774 526 864 l 526 649 l 460 649 l 460 779 q 435 859 460 835 q 357 883 411 883 l 238 883 q 159 859 183 883 q 135 779 135 835 l 135 614 q 159 534 135 558 q 238 510 183 510 l 369 510 q 500 469 460 510 q 540 339 540 429 l 540 171 q 500 40 540 81 q 369 0 460 0 l 236 0 q 106 40 146 0 q 65 171 65 81 l 65 296 l 132 296 z "},"t":{"ha":406,"x_min":8,"x_max":399,"o":"m 247 0 q 117 40 157 0 q 76 171 76 81 l 76 883 l 8 883 l 8 944 l 78 944 l 90 1147 l 143 1157 l 143 944 l 315 944 l 315 883 l 143 883 l 143 165 q 167 85 143 110 q 246 61 192 61 l 399 61 l 399 0 l 247 0 z "},"u":{"ha":649,"x_min":71,"x_max":578,"o":"m 138 944 l 138 165 q 162 85 138 110 q 242 61 186 61 l 408 61 q 488 85 464 61 q 513 165 513 110 l 513 944 l 578 944 l 578 171 q 538 40 578 81 q 407 0 497 0 l 242 0 q 111 40 151 0 q 71 171 71 81 l 71 944 l 138 944 z "},"v":{"ha":629,"x_min":10,"x_max":619,"o":"m 10 944 l 81 944 l 315 69 l 550 944 l 619 944 l 361 0 l 268 0 l 10 944 z "},"w":{"ha":1043,"x_min":11,"x_max":1032,"o":"m 11 944 l 76 944 l 288 67 l 490 944 l 551 944 l 756 67 l 967 944 l 1032 944 l 806 0 l 713 0 l 521 813 l 331 0 l 238 0 l 11 944 z "},"x":{"ha":569,"x_min":10,"x_max":558,"o":"m 249 485 l 24 944 l 93 944 l 285 557 l 475 944 l 546 944 l 319 485 l 558 0 l 488 0 l 285 414 l 81 0 l 10 0 l 249 485 z "},"y":{"ha":647,"x_min":71,"x_max":571,"o":"m 236 -175 l 400 -175 q 480 -151 456 -175 q 504 -71 504 -126 l 504 32 q 397 0 471 0 l 242 0 q 111 40 151 0 q 71 171 71 81 l 71 944 l 136 944 l 136 165 q 160 85 136 110 q 240 61 185 61 l 400 61 q 480 85 456 61 q 504 165 504 110 l 504 944 l 571 944 l 571 -65 q 531 -196 571 -156 q 400 -236 490 -236 l 236 -236 l 236 -175 z "},"z":{"ha":550,"x_min":29,"x_max":521,"o":"m 29 58 l 444 883 l 39 883 l 39 944 l 517 944 l 517 886 l 100 61 l 521 61 l 521 0 l 29 0 l 29 58 z "},"{":{"ha":697,"x_min":92,"x_max":650,"o":"m 464 -61 q 335 -20 376 -61 q 293 110 293 21 l 293 414 q 266 509 293 482 q 171 536 239 536 l 92 536 l 92 597 l 171 597 q 266 624 239 597 q 293 719 293 651 l 293 1024 q 335 1153 293 1111 q 464 1194 376 1194 l 650 1194 l 650 1133 l 482 1133 q 387 1106 414 1133 q 360 1011 360 1079 l 360 717 q 344 622 360 658 q 292 567 329 586 q 344 511 329 547 q 360 417 360 475 l 360 122 q 387 27 360 54 q 482 0 414 0 l 650 0 l 650 -61 l 464 -61 z "},"|":{"ha":217,"x_min":74,"x_max":143,"o":"m 74 1194 l 143 1194 l 143 -236 l 74 -236 l 74 1194 z "},"}":{"ha":697,"x_min":47,"x_max":606,"o":"m 47 0 l 215 0 q 310 27 283 0 q 338 122 338 54 l 338 417 q 353 511 338 475 q 406 567 368 547 q 353 622 368 586 q 338 717 338 658 l 338 1011 q 310 1106 338 1079 q 215 1133 283 1133 l 47 1133 l 47 1194 l 233 1194 q 363 1153 321 1194 q 404 1024 404 1111 l 404 719 q 431 624 404 651 q 526 597 458 597 l 606 597 l 606 536 l 526 536 q 431 509 458 536 q 404 414 404 482 l 404 110 q 363 -20 404 21 q 233 -61 322 -61 l 47 -61 l 47 0 z "},"~":{"ha":1090,"x_min":197,"x_max":893,"o":"m 197 553 q 251 701 197 647 q 397 756 306 756 q 497 731 456 756 q 578 654 539 707 q 626 606 601 622 q 699 590 651 590 q 799 624 765 590 q 832 733 832 658 l 893 733 q 844 583 893 635 q 700 532 794 532 q 592 558 629 532 q 528 621 556 585 q 470 678 497 660 q 396 697 443 697 q 294 660 329 697 q 258 553 258 622 l 197 553 z "},"¡":{"ha":226,"x_min":54,"x_max":174,"o":"m 78 94 l 89 729 l 138 729 l 147 94 l 147 -208 l 78 -208 l 78 94 m 54 893 q 72 935 54 918 q 114 953 89 953 q 156 935 138 953 q 174 893 174 918 q 156 851 174 869 q 114 833 138 833 q 72 851 89 833 q 54 893 54 869 z "},"¢":{"ha":647,"x_min":71,"x_max":582,"o":"m 582 296 l 582 171 q 542 40 582 81 q 411 0 501 0 l 354 0 l 354 -172 l 293 -172 l 293 0 l 242 0 q 111 40 151 0 q 71 171 71 81 l 71 774 q 111 904 71 864 q 242 944 151 944 l 293 944 l 293 1111 l 354 1111 l 354 944 l 411 944 q 542 904 501 944 q 582 774 582 864 l 582 649 l 515 649 l 515 779 q 491 859 515 835 q 411 883 467 883 l 240 883 q 162 859 186 883 q 138 779 138 835 l 138 165 q 162 85 138 110 q 240 61 186 61 l 411 61 q 491 85 467 61 q 515 165 515 110 l 515 296 l 582 296 z "},"£":{"ha":747,"x_min":29,"x_max":700,"o":"m 29 64 l 144 64 l 144 494 l 29 494 l 29 553 l 144 553 l 144 982 q 185 1113 144 1072 q 315 1153 225 1153 l 435 1153 q 565 1113 525 1153 q 606 982 606 1072 l 606 814 l 539 814 l 539 988 q 515 1067 539 1043 q 435 1092 490 1092 l 317 1092 q 238 1067 263 1092 q 214 988 214 1043 l 214 553 l 478 553 l 478 494 l 214 494 l 214 64 l 632 64 l 632 219 l 700 219 l 700 0 l 29 0 l 29 64 z "},"¤":{"ha":618,"x_min":60,"x_max":558,"o":"m 110 228 q 67 360 67 269 l 67 806 q 107 933 67 894 l 60 1032 l 124 1032 l 156 964 q 236 975 192 975 l 378 975 q 461 963 428 975 l 494 1032 l 558 1032 l 510 931 q 546 806 546 890 l 546 360 q 507 231 546 271 l 558 122 l 494 122 l 457 201 q 378 190 421 190 l 236 190 q 161 200 190 190 l 124 122 l 60 122 l 110 228 m 381 249 q 460 272 436 249 q 483 351 483 296 l 483 814 q 460 893 483 869 q 381 917 436 917 l 233 917 q 154 893 178 917 q 131 814 131 869 l 131 351 q 154 272 131 296 q 233 249 178 249 l 381 249 z "},"¥":{"ha":704,"x_min":65,"x_max":639,"o":"m 219 232 l 319 232 l 319 319 l 153 319 l 153 372 l 319 372 l 319 458 l 242 458 q 107 500 149 458 q 65 635 65 542 l 65 1153 l 135 1153 l 135 629 q 159 547 135 572 q 242 522 183 522 l 463 522 q 546 547 521 522 q 571 629 571 572 l 571 1153 l 639 1153 l 639 635 q 597 500 639 542 q 463 458 556 458 l 388 458 l 388 372 l 551 372 l 551 319 l 388 319 l 388 232 l 485 232 l 485 179 l 388 179 l 388 0 l 319 0 l 319 179 l 219 179 l 219 232 z "},"¦":{"ha":222,"x_min":76,"x_max":146,"o":"m 76 375 l 146 375 l 146 -236 l 76 -236 l 76 375 m 76 1194 l 146 1194 l 146 583 l 76 583 l 76 1194 z "},"§":{"ha":632,"x_min":65,"x_max":567,"o":"m 132 303 l 132 165 q 156 85 132 110 q 235 61 181 61 l 397 61 q 477 85 453 61 q 501 165 501 110 l 501 299 q 477 378 501 354 q 397 403 453 403 l 236 403 q 106 443 146 403 q 65 574 65 483 l 65 635 q 124 776 65 739 q 65 918 65 814 l 65 1024 q 106 1154 65 1114 q 236 1194 146 1194 l 385 1194 q 515 1154 475 1194 q 556 1024 556 1114 l 556 894 l 490 894 l 490 1029 q 466 1109 490 1085 q 386 1133 442 1133 l 235 1133 q 156 1109 181 1133 q 132 1029 132 1085 l 132 911 q 156 833 132 857 q 235 808 181 808 l 396 808 q 526 768 486 808 q 567 638 567 728 l 567 574 q 508 433 567 469 q 567 293 567 394 l 567 171 q 526 40 567 81 q 396 0 486 0 l 236 0 q 106 40 146 0 q 65 171 65 81 l 65 303 l 132 303 m 397 464 q 477 488 453 464 q 501 567 501 513 l 501 643 q 477 723 501 699 q 397 747 453 747 l 235 747 q 156 723 181 747 q 132 643 132 699 l 132 567 q 156 488 132 513 q 235 464 181 464 l 397 464 z "},"¨":{"ha":542,"x_min":113,"x_max":429,"o":"m 113 822 q 130 865 113 847 q 172 882 147 882 q 213 865 196 882 q 231 822 231 847 q 213 781 231 799 q 172 764 196 764 q 130 781 147 764 q 113 822 113 799 m 310 822 q 328 865 310 847 q 371 882 346 882 q 412 865 394 882 q 429 822 429 847 q 412 781 429 799 q 371 764 394 764 q 328 781 346 764 q 310 822 310 799 z "},"©":{"ha":926,"x_min":74,"x_max":853,"o":"m 460 378 q 167 484 261 378 q 74 785 74 590 q 169 1099 74 994 q 468 1203 265 1203 q 760 1097 667 1203 q 853 794 853 992 q 758 481 853 585 q 460 378 663 378 m 653 715 l 653 700 q 613 569 653 610 q 482 529 572 529 l 446 529 q 315 569 356 529 q 275 700 275 610 l 275 886 q 315 1014 275 976 q 446 1051 356 1051 l 482 1051 q 613 1014 572 1051 q 653 886 653 976 l 653 868 l 589 868 l 589 894 q 565 973 589 949 q 485 997 540 997 l 442 997 q 363 973 388 997 q 339 894 339 949 l 339 692 q 363 612 339 636 q 442 588 388 588 l 485 588 q 565 612 540 588 q 589 692 589 636 l 589 715 l 653 715 m 464 436 q 615 460 553 436 q 717 531 678 485 q 774 642 756 576 q 792 792 792 708 q 774 940 792 875 q 716 1051 756 1006 q 615 1121 676 1097 q 464 1144 553 1144 q 313 1120 375 1144 q 211 1050 250 1096 q 154 939 172 1004 q 136 792 136 874 q 154 641 136 707 q 212 529 172 575 q 314 460 251 483 q 464 436 376 436 z "},"ª":{"ha":551,"x_min":65,"x_max":472,"o":"m 83 443 l 468 443 l 468 383 l 83 383 l 83 443 m 231 892 q 153 868 176 892 q 129 790 129 844 l 129 668 q 153 590 129 614 q 231 565 176 565 l 307 565 q 386 590 363 565 q 410 668 410 614 l 410 992 q 386 1070 410 1046 q 307 1094 363 1094 l 104 1094 l 104 1153 l 304 1153 q 433 1113 393 1153 q 472 983 472 1072 l 472 676 q 433 547 472 588 q 304 507 393 507 l 235 507 q 106 547 146 507 q 65 675 65 586 l 65 782 q 106 911 65 871 q 235 951 146 951 l 333 951 l 333 892 l 231 892 z "},"«":{"ha":539,"x_min":31,"x_max":489,"o":"m 31 486 l 226 824 l 283 792 l 106 486 l 283 181 l 226 149 l 31 486 m 236 486 l 432 824 l 489 792 l 313 486 l 489 181 l 432 149 l 236 486 z "},"¬":{"ha":475,"x_min":47,"x_max":406,"o":"m 47 676 l 406 676 l 406 511 l 336 511 l 336 615 l 47 615 l 47 676 z "},"®":{"ha":828,"x_min":74,"x_max":754,"o":"m 236 1014 l 396 1014 q 506 981 472 1014 q 540 878 540 949 l 540 825 q 507 722 540 756 q 567 677 549 710 q 586 588 586 644 l 586 433 l 531 433 l 531 594 q 510 663 531 642 q 442 683 489 683 l 321 683 l 321 733 l 396 733 q 464 753 443 733 q 485 822 485 774 l 485 875 q 464 942 485 922 q 396 963 443 963 l 292 963 l 292 433 l 236 433 l 236 1014 m 74 982 q 114 1113 74 1072 q 244 1153 154 1153 l 583 1153 q 714 1113 674 1153 q 754 982 754 1072 l 754 460 q 714 329 754 369 q 583 289 674 289 l 244 289 q 114 329 154 289 q 74 460 74 369 l 74 982 m 586 347 q 666 372 642 347 q 690 451 690 396 l 690 990 q 666 1070 690 1046 q 586 1094 642 1094 l 242 1094 q 162 1070 186 1094 q 138 990 138 1046 l 138 451 q 162 372 138 396 q 242 347 186 347 l 586 347 z "},"¯":{"ha":656,"x_min":158,"x_max":497,"o":"m 158 828 l 497 828 l 497 769 l 158 769 l 158 828 z "},"°":{"ha":486,"x_min":47,"x_max":438,"o":"m 47 1004 q 63 1080 47 1044 q 104 1142 78 1115 q 167 1183 131 1168 q 243 1199 203 1199 q 319 1183 283 1199 q 381 1142 354 1168 q 422 1080 407 1115 q 438 1004 438 1044 q 422 928 438 964 q 381 865 407 892 q 319 824 354 839 q 243 808 283 808 q 167 824 203 808 q 104 865 131 839 q 63 928 78 892 q 47 1004 47 964 m 106 1004 q 145 906 106 946 q 243 867 185 867 q 340 906 300 867 q 379 1004 379 946 q 340 1101 379 1061 q 243 1140 300 1140 q 145 1101 185 1140 q 106 1004 106 1061 z "},"±":{"ha":739,"x_min":47,"x_max":692,"o":"m 47 815 l 333 815 l 333 988 l 403 988 l 403 815 l 692 815 l 692 754 l 403 754 l 403 582 l 333 582 l 333 754 l 47 754 l 47 815 m 47 472 l 692 472 l 692 411 l 47 411 l 47 472 z "},"²":{"ha":510,"x_min":44,"x_max":465,"o":"m 176 596 q 44 728 44 596 l 44 897 q 176 1029 44 1029 l 333 1029 q 387 1044 369 1029 q 404 1088 404 1060 l 404 1264 q 387 1307 404 1292 q 333 1322 369 1322 l 85 1322 l 85 1381 l 333 1381 q 465 1260 465 1381 l 465 1092 q 333 971 465 971 l 176 971 q 126 953 144 971 q 107 901 107 935 l 107 724 q 126 672 107 690 q 176 654 144 654 l 456 654 l 456 596 l 176 596 z "},"³":{"ha":518,"x_min":43,"x_max":457,"o":"m 46 654 l 321 654 q 380 667 367 654 q 393 725 393 681 l 393 896 q 376 955 393 939 q 325 971 360 971 l 111 971 l 111 1029 l 325 1029 q 376 1045 360 1029 q 393 1103 393 1061 l 393 1251 q 380 1309 393 1296 q 321 1322 367 1322 l 43 1322 l 43 1381 l 321 1381 q 427 1351 397 1381 q 457 1244 457 1321 l 457 1103 q 414 1000 457 1025 q 457 897 457 975 l 457 732 q 426 626 457 657 q 321 596 396 596 l 46 596 l 46 654 z "},"´":{"ha":538,"x_min":156,"x_max":415,"o":"m 156 788 l 385 919 l 415 865 l 185 735 l 156 788 z "},"¶":{"ha":722,"x_min":63,"x_max":646,"o":"m 318 279 l 236 279 q 63 446 63 279 l 63 986 q 236 1153 63 1153 l 475 1153 q 606 1113 565 1153 q 646 982 646 1072 l 646 -236 l 576 -236 l 576 969 q 550 1065 576 1039 q 454 1092 524 1092 l 388 1092 l 388 -236 l 318 -236 l 318 279 z "},"·":{"ha":201,"x_min":29,"x_max":168,"o":"m 29 474 q 49 524 29 503 q 99 544 69 544 q 147 524 126 544 q 168 474 168 503 q 147 426 168 446 q 99 406 126 406 q 49 426 69 406 q 29 474 29 446 z "},"¸":{"ha":310,"x_min":65,"x_max":292,"o":"m 89 -175 q 122 -194 104 -187 q 158 -200 140 -200 q 211 -181 189 -200 q 233 -122 233 -162 q 222 -78 233 -94 q 191 -55 210 -62 q 149 -45 172 -47 q 104 -43 126 -43 l 82 4 l 192 4 q 268 -46 244 -11 q 292 -125 292 -81 q 257 -218 292 -182 q 160 -254 222 -254 q 115 -247 138 -254 q 65 -225 92 -240 l 89 -175 z "},"¹":{"ha":513,"x_min":28,"x_max":485,"o":"m 28 654 l 238 654 l 238 1322 l 94 1322 l 94 1381 l 300 1381 l 300 654 l 485 654 l 485 596 l 28 596 l 28 654 z "},"º":{"ha":557,"x_min":74,"x_max":482,"o":"m 88 428 l 467 428 l 467 368 l 88 368 l 88 428 m 74 983 q 114 1113 74 1072 q 243 1153 154 1153 l 313 1153 q 442 1113 401 1153 q 482 983 482 1072 l 482 676 q 442 547 482 588 q 313 507 401 507 l 243 507 q 114 547 154 507 q 74 676 74 588 l 74 983 m 317 565 q 394 590 371 565 q 418 668 418 614 l 418 992 q 394 1070 418 1046 q 317 1094 371 1094 l 240 1094 q 161 1070 185 1094 q 138 992 138 1046 l 138 668 q 161 590 138 614 q 240 565 185 565 l 317 565 z "},"»":{"ha":539,"x_min":49,"x_max":508,"o":"m 226 486 l 49 792 l 106 824 l 301 486 l 106 149 l 49 181 l 226 486 m 432 486 l 256 792 l 313 824 l 508 486 l 313 149 l 256 181 l 432 486 z "},"¼":{"ha":1476,"x_min":28,"x_max":1400,"o":"m 1215 160 l 993 160 q 864 199 903 160 q 825 329 825 238 l 825 785 l 888 785 l 888 321 q 910 240 888 263 q 990 218 932 218 l 1215 218 l 1215 693 l 1279 693 l 1279 218 l 1400 218 l 1400 160 l 1279 160 l 1279 0 l 1215 0 l 1215 160 m 28 426 l 238 426 l 238 1094 l 94 1094 l 94 1153 l 300 1153 l 300 426 l 485 426 l 485 368 l 28 368 l 28 426 m 875 1167 l 933 1144 l 419 -14 l 363 8 l 875 1167 z "},"½":{"ha":1286,"x_min":28,"x_max":1210,"o":"m 921 0 q 789 132 789 0 l 789 301 q 921 433 789 433 l 1078 433 q 1131 449 1114 433 q 1147 492 1147 464 l 1147 668 q 1131 711 1147 696 q 1078 726 1114 726 l 829 726 l 829 785 l 1078 785 q 1210 664 1210 785 l 1210 496 q 1078 375 1210 375 l 921 375 q 869 357 888 375 q 850 306 850 339 l 850 128 q 869 76 850 94 q 921 58 888 58 l 1199 58 l 1199 0 l 921 0 m 28 426 l 238 426 l 238 1094 l 94 1094 l 94 1153 l 300 1153 l 300 426 l 485 426 l 485 368 l 28 368 l 28 426 m 886 1167 l 944 1144 l 431 -14 l 374 8 l 886 1167 z "},"¾":{"ha":1438,"x_min":43,"x_max":1361,"o":"m 1176 160 l 954 160 q 825 199 864 160 q 786 329 786 238 l 786 785 l 849 785 l 849 321 q 871 240 849 263 q 951 218 893 218 l 1176 218 l 1176 693 l 1240 693 l 1240 218 l 1361 218 l 1361 160 l 1240 160 l 1240 0 l 1176 0 l 1176 160 m 46 426 l 321 426 q 380 440 367 426 q 393 497 393 453 l 393 668 q 376 727 393 711 q 325 743 360 743 l 111 743 l 111 801 l 325 801 q 376 817 360 801 q 393 875 393 833 l 393 1024 q 380 1081 393 1068 q 321 1094 367 1094 l 43 1094 l 43 1153 l 321 1153 q 427 1123 397 1153 q 457 1017 457 1093 l 457 875 q 414 772 457 797 q 457 669 457 747 l 457 504 q 426 399 457 429 q 321 368 396 368 l 46 368 l 46 426 m 847 1167 l 906 1144 l 392 -14 l 335 8 l 847 1167 z "},"¿":{"ha":689,"x_min":65,"x_max":642,"o":"m 642 217 l 642 -32 q 600 -167 642 -125 q 465 -208 558 -208 l 242 -208 q 107 -167 149 -208 q 65 -32 65 -125 l 65 365 q 107 500 65 458 q 242 542 149 542 l 275 542 q 357 567 332 542 q 382 649 382 592 l 382 729 l 450 729 l 450 654 q 408 519 450 561 q 274 478 367 478 l 242 478 q 159 453 183 478 q 135 371 135 428 l 135 -37 q 159 -119 135 -94 q 242 -144 183 -144 l 465 -144 q 549 -119 524 -144 q 574 -37 574 -94 l 574 217 l 642 217 m 417 814 q 368 835 389 814 q 347 885 347 856 q 368 933 347 913 q 417 953 389 953 q 466 933 446 953 q 486 885 486 913 q 466 835 486 856 q 417 814 446 814 z "},"À":{"ha":728,"x_min":10,"x_max":718,"o":"m 311 1153 l 414 1153 l 718 0 l 647 0 l 543 397 l 185 397 l 81 0 l 10 0 l 311 1153 m 526 461 l 364 1083 l 201 461 l 526 461 m 250 1406 l 479 1274 l 450 1221 l 219 1351 l 250 1406 z "},"Á":{"ha":728,"x_min":10,"x_max":718,"o":"m 311 1153 l 414 1153 l 718 0 l 647 0 l 543 397 l 185 397 l 81 0 l 10 0 l 311 1153 m 526 461 l 364 1083 l 201 461 l 526 461 m 282 1274 l 511 1406 l 542 1351 l 311 1221 l 282 1274 z "},"Â":{"ha":728,"x_min":10,"x_max":718,"o":"m 311 1153 l 414 1153 l 718 0 l 647 0 l 543 397 l 185 397 l 81 0 l 10 0 l 311 1153 m 526 461 l 364 1083 l 201 461 l 526 461 m 150 1276 l 363 1400 l 578 1276 l 549 1225 l 363 1331 l 181 1225 l 150 1276 z "},"Ã":{"ha":728,"x_min":10,"x_max":718,"o":"m 311 1153 l 414 1153 l 718 0 l 647 0 l 543 397 l 185 397 l 81 0 l 10 0 l 311 1153 m 526 461 l 364 1083 l 201 461 l 526 461 m 222 1274 l 328 1336 l 403 1293 l 479 1336 l 508 1283 l 403 1224 l 328 1265 l 253 1221 l 222 1274 z "},"Ä":{"ha":728,"x_min":10,"x_max":718,"o":"m 311 1153 l 414 1153 l 718 0 l 647 0 l 543 397 l 185 397 l 81 0 l 10 0 l 311 1153 m 526 461 l 364 1083 l 201 461 l 526 461 m 204 1308 q 222 1351 204 1333 q 264 1368 239 1368 q 305 1351 288 1368 q 322 1308 322 1333 q 305 1267 322 1285 q 264 1250 288 1250 q 222 1267 239 1250 q 204 1308 204 1285 m 401 1308 q 419 1351 401 1333 q 463 1368 438 1368 q 503 1351 486 1368 q 521 1308 521 1333 q 503 1267 521 1285 q 463 1250 486 1250 q 419 1267 438 1250 q 401 1308 401 1285 z "},"Å":{"ha":728,"x_min":10,"x_max":718,"o":"m 311 1153 l 414 1153 l 718 0 l 647 0 l 543 397 l 185 397 l 81 0 l 10 0 l 311 1153 m 526 461 l 364 1083 l 201 461 l 526 461 m 253 1318 q 285 1397 253 1364 q 364 1429 318 1429 q 441 1397 408 1429 q 474 1318 474 1364 q 441 1241 474 1274 q 364 1208 408 1208 q 285 1241 318 1208 q 253 1318 253 1274 m 307 1318 q 324 1277 307 1294 q 364 1260 340 1260 q 403 1277 388 1260 q 419 1318 419 1294 q 403 1359 419 1342 q 364 1376 388 1376 q 324 1359 340 1376 q 307 1318 307 1342 z "},"Æ":{"ha":1057,"x_min":25,"x_max":1014,"o":"m 589 171 q 614 89 589 114 q 696 64 639 64 l 1014 64 l 1014 0 l 697 0 q 563 42 604 0 q 521 176 521 83 l 521 563 l 243 563 l 96 0 l 25 0 l 329 1153 l 1000 1153 l 1000 1089 l 696 1089 q 614 1064 639 1089 q 589 982 589 1039 l 589 626 l 854 626 l 854 563 l 589 563 l 589 171 m 521 626 l 521 976 q 546 1089 521 1050 l 381 1089 l 260 626 l 521 626 z "},"Ç":{"ha":724,"x_min":76,"x_max":660,"o":"m 660 363 l 660 176 q 617 42 660 83 q 482 0 575 0 l 254 0 q 119 42 161 0 q 76 176 76 83 l 76 976 q 119 1111 76 1069 q 254 1153 161 1153 l 482 1153 q 617 1111 575 1153 q 660 976 660 1069 l 660 790 l 590 790 l 590 982 q 565 1064 590 1039 q 483 1089 540 1089 l 253 1089 q 171 1064 196 1089 q 146 982 146 1039 l 146 171 q 171 89 146 114 q 253 64 196 64 l 483 64 q 565 89 540 64 q 590 171 590 114 l 590 363 l 660 363 m 299 -175 q 332 -194 314 -187 q 368 -200 350 -200 q 421 -181 399 -200 q 443 -122 443 -162 q 431 -78 443 -94 q 401 -55 419 -62 q 359 -45 382 -47 q 314 -43 336 -43 l 292 4 l 401 4 q 478 -46 454 -11 q 501 -125 501 -81 q 467 -218 501 -182 q 369 -254 432 -254 q 324 -247 347 -254 q 275 -225 301 -240 l 299 -175 z "},"È":{"ha":647,"x_min":76,"x_max":603,"o":"m 146 171 q 170 89 146 114 q 253 64 194 64 l 603 64 l 603 0 l 253 0 q 118 42 160 0 q 76 176 76 83 l 76 976 q 118 1111 76 1069 q 253 1153 160 1153 l 589 1153 l 589 1089 l 253 1089 q 170 1064 194 1089 q 146 982 146 1039 l 146 629 l 438 629 l 438 565 l 146 565 l 146 171 m 243 1406 l 472 1274 l 443 1221 l 213 1351 l 243 1406 z "},"É":{"ha":647,"x_min":76,"x_max":603,"o":"m 146 171 q 170 89 146 114 q 253 64 194 64 l 603 64 l 603 0 l 253 0 q 118 42 160 0 q 76 176 76 83 l 76 976 q 118 1111 76 1069 q 253 1153 160 1153 l 589 1153 l 589 1089 l 253 1089 q 170 1064 194 1089 q 146 982 146 1039 l 146 629 l 438 629 l 438 565 l 146 565 l 146 171 m 276 1274 l 506 1406 l 536 1351 l 306 1221 l 276 1274 z "},"Ê":{"ha":647,"x_min":76,"x_max":603,"o":"m 146 171 q 170 89 146 114 q 253 64 194 64 l 603 64 l 603 0 l 253 0 q 118 42 160 0 q 76 176 76 83 l 76 976 q 118 1111 76 1069 q 253 1153 160 1153 l 589 1153 l 589 1089 l 253 1089 q 170 1064 194 1089 q 146 982 146 1039 l 146 629 l 438 629 l 438 565 l 146 565 l 146 171 m 144 1276 l 357 1400 l 572 1276 l 543 1225 l 357 1331 l 175 1225 l 144 1276 z "},"Ë":{"ha":647,"x_min":76,"x_max":603,"o":"m 146 171 q 170 89 146 114 q 253 64 194 64 l 603 64 l 603 0 l 253 0 q 118 42 160 0 q 76 176 76 83 l 76 976 q 118 1111 76 1069 q 253 1153 160 1153 l 589 1153 l 589 1089 l 253 1089 q 170 1064 194 1089 q 146 982 146 1039 l 146 629 l 438 629 l 438 565 l 146 565 l 146 171 m 199 1308 q 216 1351 199 1333 q 258 1368 233 1368 q 299 1351 282 1368 q 317 1308 317 1333 q 299 1267 317 1285 q 258 1250 282 1250 q 216 1267 233 1250 q 199 1308 199 1285 m 396 1308 q 414 1351 396 1333 q 457 1368 432 1368 q 498 1351 481 1368 q 515 1308 515 1333 q 498 1267 515 1285 q 457 1250 481 1250 q 414 1267 432 1250 q 396 1308 396 1285 z "},"Ì":{"ha":222,"x_min":-33,"x_max":226,"o":"m 76 1153 l 146 1153 l 146 0 l 76 0 l 76 1153 m -3 1406 l 226 1274 l 197 1221 l -33 1351 l -3 1406 z "},"Í":{"ha":222,"x_min":31,"x_max":290,"o":"m 76 1153 l 146 1153 l 146 0 l 76 0 l 76 1153 m 31 1274 l 260 1406 l 290 1351 l 60 1221 l 31 1274 z "},"Î":{"ha":222,"x_min":-100,"x_max":328,"o":"m 76 1153 l 146 1153 l 146 0 l 76 0 l 76 1153 m -100 1276 l 113 1400 l 328 1276 l 299 1225 l 113 1331 l -69 1225 l -100 1276 z "},"Ï":{"ha":222,"x_min":-47,"x_max":269,"o":"m 76 1153 l 146 1153 l 146 0 l 76 0 l 76 1153 m -47 1308 q -30 1351 -47 1333 q 13 1368 -12 1368 q 53 1351 36 1368 q 71 1308 71 1333 q 53 1267 71 1285 q 13 1250 36 1250 q -30 1267 -12 1250 q -47 1308 -47 1285 m 150 1308 q 168 1351 150 1333 q 211 1368 186 1368 q 252 1351 235 1368 q 269 1308 269 1333 q 252 1267 269 1285 q 211 1250 235 1250 q 168 1267 186 1250 q 150 1308 150 1285 z "},"Ð":{"ha":744,"x_min":1,"x_max":658,"o":"m 1 610 l 76 610 l 76 1153 l 482 1153 q 617 1111 575 1153 q 658 976 658 1069 l 658 176 q 617 42 658 83 q 482 0 575 0 l 76 0 l 76 549 l 1 549 l 1 610 m 482 64 q 565 89 540 64 q 590 171 590 114 l 590 982 q 565 1064 590 1039 q 482 1089 540 1089 l 146 1089 l 146 610 l 454 610 l 454 549 l 146 549 l 146 64 l 482 64 z "},"Ñ":{"ha":742,"x_min":76,"x_max":665,"o":"m 76 1153 l 157 1153 l 596 129 l 596 1153 l 665 1153 l 665 0 l 579 0 l 146 1014 l 146 0 l 76 0 l 76 1153 m 233 1274 l 339 1336 l 414 1293 l 490 1336 l 519 1283 l 414 1224 l 339 1265 l 264 1221 l 233 1274 z "},"Ò":{"ha":733,"x_min":75,"x_max":657,"o":"m 75 976 q 117 1111 75 1069 q 251 1153 158 1153 l 481 1153 q 615 1111 574 1153 q 657 976 657 1069 l 657 176 q 615 42 657 83 q 481 0 574 0 l 251 0 q 117 42 158 0 q 75 176 75 83 l 75 976 m 481 64 q 563 89 539 64 q 588 171 588 114 l 588 982 q 563 1064 588 1039 q 481 1089 539 1089 l 251 1089 q 168 1064 193 1089 q 143 982 143 1039 l 143 171 q 168 89 143 114 q 251 64 193 64 l 481 64 m 253 1406 l 482 1274 l 453 1221 l 222 1351 l 253 1406 z "},"Ó":{"ha":733,"x_min":75,"x_max":657,"o":"m 75 976 q 117 1111 75 1069 q 251 1153 158 1153 l 481 1153 q 615 1111 574 1153 q 657 976 657 1069 l 657 176 q 615 42 657 83 q 481 0 574 0 l 251 0 q 117 42 158 0 q 75 176 75 83 l 75 976 m 481 64 q 563 89 539 64 q 588 171 588 114 l 588 982 q 563 1064 588 1039 q 481 1089 539 1089 l 251 1089 q 168 1064 193 1089 q 143 982 143 1039 l 143 171 q 168 89 143 114 q 251 64 193 64 l 481 64 m 285 1274 l 514 1406 l 544 1351 l 314 1221 l 285 1274 z "},"Ô":{"ha":733,"x_min":75,"x_max":657,"o":"m 75 976 q 117 1111 75 1069 q 251 1153 158 1153 l 481 1153 q 615 1111 574 1153 q 657 976 657 1069 l 657 176 q 615 42 657 83 q 481 0 574 0 l 251 0 q 117 42 158 0 q 75 176 75 83 l 75 976 m 481 64 q 563 89 539 64 q 588 171 588 114 l 588 982 q 563 1064 588 1039 q 481 1089 539 1089 l 251 1089 q 168 1064 193 1089 q 143 982 143 1039 l 143 171 q 168 89 143 114 q 251 64 193 64 l 481 64 m 153 1276 l 365 1400 l 581 1276 l 551 1225 l 365 1331 l 183 1225 l 153 1276 z "},"Õ":{"ha":733,"x_min":75,"x_max":657,"o":"m 75 976 q 117 1111 75 1069 q 251 1153 158 1153 l 481 1153 q 615 1111 574 1153 q 657 976 657 1069 l 657 176 q 615 42 657 83 q 481 0 574 0 l 251 0 q 117 42 158 0 q 75 176 75 83 l 75 976 m 481 64 q 563 89 539 64 q 588 171 588 114 l 588 982 q 563 1064 588 1039 q 481 1089 539 1089 l 251 1089 q 168 1064 193 1089 q 143 982 143 1039 l 143 171 q 168 89 143 114 q 251 64 193 64 l 481 64 m 225 1274 l 331 1336 l 406 1293 l 482 1336 l 511 1283 l 406 1224 l 331 1265 l 256 1221 l 225 1274 z "},"Ö":{"ha":733,"x_min":75,"x_max":657,"o":"m 75 976 q 117 1111 75 1069 q 251 1153 158 1153 l 481 1153 q 615 1111 574 1153 q 657 976 657 1069 l 657 176 q 615 42 657 83 q 481 0 574 0 l 251 0 q 117 42 158 0 q 75 176 75 83 l 75 976 m 481 64 q 563 89 539 64 q 588 171 588 114 l 588 982 q 563 1064 588 1039 q 481 1089 539 1089 l 251 1089 q 168 1064 193 1089 q 143 982 143 1039 l 143 171 q 168 89 143 114 q 251 64 193 64 l 481 64 m 207 1308 q 224 1351 207 1333 q 267 1368 242 1368 q 308 1351 290 1368 q 325 1308 325 1333 q 308 1267 325 1285 q 267 1250 290 1250 q 224 1267 242 1250 q 207 1308 207 1285 m 404 1308 q 422 1351 404 1333 q 465 1368 440 1368 q 506 1351 489 1368 q 524 1308 524 1333 q 506 1267 524 1285 q 465 1250 489 1250 q 422 1267 440 1250 q 404 1308 404 1285 z "},"×":{"ha":633,"x_min":100,"x_max":533,"o":"m 269 647 l 100 818 l 146 864 l 317 694 l 486 864 l 533 817 l 364 647 l 533 476 l 488 431 l 317 600 l 147 431 l 100 478 l 269 647 z "},"Ø":{"ha":731,"x_min":68,"x_max":664,"o":"m 108 51 q 75 176 75 93 l 75 976 q 117 1111 75 1069 q 251 1153 158 1153 l 481 1153 q 571 1139 538 1153 l 594 1194 l 664 1194 l 624 1101 q 657 976 657 1058 l 657 176 q 615 42 657 83 q 481 0 574 0 l 251 0 q 160 14 196 0 l 136 -42 l 68 -42 l 108 51 m 143 171 q 144 155 143 163 q 146 140 144 147 l 544 1076 q 481 1089 522 1089 l 251 1089 q 168 1064 193 1089 q 143 982 143 1039 l 143 171 m 481 64 q 563 89 539 64 q 588 171 588 114 l 588 982 q 588 998 588 990 q 586 1013 588 1006 l 186 76 q 251 64 211 64 l 481 64 z "},"Ù":{"ha":733,"x_min":76,"x_max":658,"o":"m 144 1153 l 144 171 q 169 89 144 114 q 251 64 194 64 l 482 64 q 564 89 539 64 q 589 171 589 114 l 589 1153 l 658 1153 l 658 176 q 617 42 658 83 q 482 0 575 0 l 253 0 q 118 42 160 0 q 76 176 76 83 l 76 1153 l 144 1153 m 253 1406 l 482 1274 l 453 1221 l 222 1351 l 253 1406 z "},"Ú":{"ha":733,"x_min":76,"x_max":658,"o":"m 144 1153 l 144 171 q 169 89 144 114 q 251 64 194 64 l 482 64 q 564 89 539 64 q 589 171 589 114 l 589 1153 l 658 1153 l 658 176 q 617 42 658 83 q 482 0 575 0 l 253 0 q 118 42 160 0 q 76 176 76 83 l 76 1153 l 144 1153 m 285 1274 l 514 1406 l 544 1351 l 314 1221 l 285 1274 z "},"Û":{"ha":733,"x_min":76,"x_max":658,"o":"m 144 1153 l 144 171 q 169 89 144 114 q 251 64 194 64 l 482 64 q 564 89 539 64 q 589 171 589 114 l 589 1153 l 658 1153 l 658 176 q 617 42 658 83 q 482 0 575 0 l 253 0 q 118 42 160 0 q 76 176 76 83 l 76 1153 l 144 1153 m 154 1276 l 367 1400 l 582 1276 l 553 1225 l 367 1331 l 185 1225 l 154 1276 z "},"Ü":{"ha":733,"x_min":76,"x_max":658,"o":"m 144 1153 l 144 171 q 169 89 144 114 q 251 64 194 64 l 482 64 q 564 89 539 64 q 589 171 589 114 l 589 1153 l 658 1153 l 658 176 q 617 42 658 83 q 482 0 575 0 l 253 0 q 118 42 160 0 q 76 176 76 83 l 76 1153 l 144 1153 m 208 1308 q 226 1351 208 1333 q 268 1368 243 1368 q 309 1351 292 1368 q 326 1308 326 1333 q 309 1267 326 1285 q 268 1250 292 1250 q 226 1267 243 1250 q 208 1308 208 1285 m 406 1308 q 424 1351 406 1333 q 467 1368 442 1368 q 508 1351 490 1368 q 525 1308 525 1333 q 508 1267 525 1285 q 467 1250 490 1250 q 424 1267 442 1250 q 406 1308 406 1285 z "},"Ý":{"ha":699,"x_min":65,"x_max":633,"o":"m 317 324 l 242 324 q 107 366 149 324 q 65 501 65 408 l 65 1153 l 135 1153 l 135 496 q 159 413 135 438 q 242 388 183 388 l 457 388 q 540 413 515 388 q 565 496 565 438 l 565 1153 l 633 1153 l 633 501 q 592 366 633 408 q 457 324 550 324 l 385 324 l 385 0 l 317 0 l 317 324 m 265 1274 l 494 1406 l 525 1351 l 294 1221 l 265 1274 z "},"Þ":{"ha":663,"x_min":76,"x_max":597,"o":"m 76 1153 l 146 1153 l 146 944 l 421 944 q 556 903 514 944 q 597 768 597 861 l 597 401 q 556 266 597 308 q 421 224 514 224 l 146 224 l 146 0 l 76 0 l 76 1153 m 421 288 q 503 313 478 288 q 528 396 528 338 l 528 774 q 503 856 528 831 q 421 881 478 881 l 146 881 l 146 288 l 421 288 z "},"ß":{"ha":753,"x_min":76,"x_max":688,"o":"m 76 1018 q 118 1153 76 1111 q 253 1194 160 1194 l 356 1194 q 491 1153 449 1194 q 533 1019 533 1113 l 533 858 q 500 746 533 783 l 511 746 q 646 704 604 746 q 688 569 688 663 l 688 176 q 646 42 688 83 q 511 0 604 0 l 392 0 q 257 42 299 0 q 215 176 215 83 l 215 275 l 285 275 l 285 171 q 309 89 285 114 q 392 64 333 64 l 513 64 q 594 89 569 64 q 619 171 619 114 l 619 578 q 594 660 619 635 q 513 685 569 685 l 324 685 l 324 746 l 357 746 q 439 771 414 746 q 464 853 464 796 l 464 1024 q 439 1106 464 1081 q 357 1131 414 1131 l 253 1131 q 170 1106 194 1131 q 146 1024 146 1081 l 146 -114 l 76 -114 l 76 1018 z "},"à":{"ha":650,"x_min":69,"x_max":581,"o":"m 240 0 q 110 40 150 0 q 69 171 69 81 l 69 774 q 110 904 69 864 q 240 944 150 944 l 410 944 q 540 904 500 944 q 581 774 581 864 l 581 0 l 514 0 l 514 779 q 490 859 514 835 q 410 883 465 883 l 239 883 q 160 859 185 883 q 136 779 136 835 l 136 165 q 160 85 136 110 q 239 61 185 61 l 438 61 l 438 0 l 240 0 m 210 1197 l 439 1065 l 410 1013 l 179 1143 l 210 1197 z "},"á":{"ha":650,"x_min":69,"x_max":581,"o":"m 240 0 q 110 40 150 0 q 69 171 69 81 l 69 774 q 110 904 69 864 q 240 944 150 944 l 410 944 q 540 904 500 944 q 581 774 581 864 l 581 0 l 514 0 l 514 779 q 490 859 514 835 q 410 883 465 883 l 239 883 q 160 859 185 883 q 136 779 136 835 l 136 165 q 160 85 136 110 q 239 61 185 61 l 438 61 l 438 0 l 240 0 m 243 1065 l 472 1197 l 503 1143 l 272 1013 l 243 1065 z "},"â":{"ha":650,"x_min":69,"x_max":581,"o":"m 240 0 q 110 40 150 0 q 69 171 69 81 l 69 774 q 110 904 69 864 q 240 944 150 944 l 410 944 q 540 904 500 944 q 581 774 581 864 l 581 0 l 514 0 l 514 779 q 490 859 514 835 q 410 883 465 883 l 239 883 q 160 859 185 883 q 136 779 136 835 l 136 165 q 160 85 136 110 q 239 61 185 61 l 438 61 l 438 0 l 240 0 m 111 1068 l 324 1192 l 539 1068 l 510 1017 l 324 1122 l 142 1017 l 111 1068 z "},"ã":{"ha":650,"x_min":69,"x_max":581,"o":"m 240 0 q 110 40 150 0 q 69 171 69 81 l 69 774 q 110 904 69 864 q 240 944 150 944 l 410 944 q 540 904 500 944 q 581 774 581 864 l 581 0 l 514 0 l 514 779 q 490 859 514 835 q 410 883 465 883 l 239 883 q 160 859 185 883 q 136 779 136 835 l 136 165 q 160 85 136 110 q 239 61 185 61 l 438 61 l 438 0 l 240 0 m 183 1065 l 289 1128 l 364 1085 l 440 1128 l 469 1075 l 364 1015 l 289 1057 l 214 1013 l 183 1065 z "},"ä":{"ha":650,"x_min":69,"x_max":581,"o":"m 240 0 q 110 40 150 0 q 69 171 69 81 l 69 774 q 110 904 69 864 q 240 944 150 944 l 410 944 q 540 904 500 944 q 581 774 581 864 l 581 0 l 514 0 l 514 779 q 490 859 514 835 q 410 883 465 883 l 239 883 q 160 859 185 883 q 136 779 136 835 l 136 165 q 160 85 136 110 q 239 61 185 61 l 438 61 l 438 0 l 240 0 m 165 1100 q 183 1142 165 1125 q 225 1160 200 1160 q 266 1142 249 1160 q 283 1100 283 1125 q 266 1059 283 1076 q 225 1042 249 1042 q 183 1059 200 1042 q 165 1100 165 1076 m 363 1100 q 381 1142 363 1125 q 424 1160 399 1160 q 465 1142 447 1160 q 482 1100 482 1125 q 465 1059 482 1076 q 424 1042 447 1042 q 381 1059 399 1042 q 363 1100 363 1076 z "},"å":{"ha":650,"x_min":69,"x_max":581,"o":"m 240 0 q 110 40 150 0 q 69 171 69 81 l 69 774 q 110 904 69 864 q 240 944 150 944 l 410 944 q 540 904 500 944 q 581 774 581 864 l 581 0 l 514 0 l 514 779 q 490 859 514 835 q 410 883 465 883 l 239 883 q 160 859 185 883 q 136 779 136 835 l 136 165 q 160 85 136 110 q 239 61 185 61 l 438 61 l 438 0 l 240 0 m 214 1110 q 247 1188 214 1156 q 325 1221 279 1221 q 402 1188 369 1221 q 435 1110 435 1156 q 402 1033 435 1065 q 325 1000 369 1000 q 247 1033 279 1000 q 214 1110 214 1065 m 268 1110 q 285 1069 268 1086 q 325 1051 301 1051 q 365 1069 349 1051 q 381 1110 381 1086 q 365 1151 381 1133 q 325 1168 349 1168 q 285 1151 301 1168 q 268 1110 268 1133 z "},"æ":{"ha":1028,"x_min":65,"x_max":961,"o":"m 235 490 q 155 466 179 490 q 131 388 131 442 l 131 165 q 155 85 131 110 q 235 61 179 61 l 381 61 q 460 85 436 61 q 485 165 485 110 l 485 779 q 460 859 485 835 q 381 883 436 883 l 243 883 q 163 859 188 883 q 139 779 139 835 l 139 664 l 74 664 l 74 774 q 114 904 74 864 q 244 944 154 944 l 379 944 q 517 889 479 944 q 656 944 554 944 l 790 944 q 921 904 881 944 q 961 774 961 864 l 961 661 q 921 531 961 571 q 790 490 881 490 l 624 490 l 624 551 l 792 551 q 872 576 847 551 q 896 656 896 600 l 896 779 q 872 859 896 835 q 792 883 847 883 l 654 883 q 574 859 599 883 q 550 779 550 835 l 550 165 q 574 85 550 110 q 654 61 599 61 l 783 61 q 863 85 839 61 q 888 165 888 110 l 888 281 l 953 281 l 953 171 q 913 40 953 81 q 782 0 872 0 l 656 0 q 517 56 554 0 q 379 0 479 0 l 236 0 q 106 40 146 0 q 65 171 65 81 l 65 381 q 106 511 65 471 q 236 551 146 551 l 410 551 l 410 490 l 235 490 z "},"ç":{"ha":647,"x_min":71,"x_max":582,"o":"m 582 296 l 582 171 q 542 40 582 81 q 411 0 501 0 l 242 0 q 111 40 151 0 q 71 171 71 81 l 71 774 q 111 904 71 864 q 242 944 151 944 l 411 944 q 542 904 501 944 q 582 774 582 864 l 582 649 l 515 649 l 515 779 q 491 859 515 835 q 411 883 467 883 l 240 883 q 162 859 186 883 q 138 779 138 835 l 138 165 q 162 85 138 110 q 240 61 186 61 l 411 61 q 491 85 467 61 q 515 165 515 110 l 515 296 l 582 296 m 260 -175 q 293 -194 275 -187 q 329 -200 311 -200 q 382 -181 360 -200 q 404 -122 404 -162 q 392 -78 404 -94 q 362 -55 381 -62 q 320 -45 343 -47 q 275 -43 297 -43 l 253 4 l 363 4 q 439 -46 415 -11 q 463 -125 463 -81 q 428 -218 463 -182 q 331 -254 393 -254 q 285 -247 308 -254 q 236 -225 263 -240 l 260 -175 z "},"è":{"ha":647,"x_min":71,"x_max":582,"o":"m 211 421 l 411 421 q 491 445 467 421 q 515 524 515 469 l 515 779 q 491 859 515 835 q 411 883 467 883 l 240 883 q 162 859 186 883 q 138 779 138 835 l 138 165 q 162 85 138 110 q 240 61 186 61 l 403 61 q 483 85 458 61 q 507 165 507 110 l 507 293 l 574 293 l 574 171 q 533 40 574 81 q 403 0 493 0 l 242 0 q 111 40 151 0 q 71 171 71 81 l 71 774 q 111 904 71 864 q 242 944 151 944 l 411 944 q 542 904 501 944 q 582 774 582 864 l 582 531 q 542 400 582 440 q 411 360 501 360 l 211 360 l 211 421 m 213 1197 l 442 1065 l 413 1013 l 182 1143 l 213 1197 z "},"é":{"ha":647,"x_min":71,"x_max":582,"o":"m 211 421 l 411 421 q 491 445 467 421 q 515 524 515 469 l 515 779 q 491 859 515 835 q 411 883 467 883 l 240 883 q 162 859 186 883 q 138 779 138 835 l 138 165 q 162 85 138 110 q 240 61 186 61 l 403 61 q 483 85 458 61 q 507 165 507 110 l 507 293 l 574 293 l 574 171 q 533 40 574 81 q 403 0 493 0 l 242 0 q 111 40 151 0 q 71 171 71 81 l 71 774 q 111 904 71 864 q 242 944 151 944 l 411 944 q 542 904 501 944 q 582 774 582 864 l 582 531 q 542 400 582 440 q 411 360 501 360 l 211 360 l 211 421 m 244 1065 l 474 1197 l 504 1143 l 274 1013 l 244 1065 z "},"ê":{"ha":647,"x_min":71,"x_max":582,"o":"m 211 421 l 411 421 q 491 445 467 421 q 515 524 515 469 l 515 779 q 491 859 515 835 q 411 883 467 883 l 240 883 q 162 859 186 883 q 138 779 138 835 l 138 165 q 162 85 138 110 q 240 61 186 61 l 403 61 q 483 85 458 61 q 507 165 507 110 l 507 293 l 574 293 l 574 171 q 533 40 574 81 q 403 0 493 0 l 242 0 q 111 40 151 0 q 71 171 71 81 l 71 774 q 111 904 71 864 q 242 944 151 944 l 411 944 q 542 904 501 944 q 582 774 582 864 l 582 531 q 542 400 582 440 q 411 360 501 360 l 211 360 l 211 421 m 114 1068 l 326 1192 l 542 1068 l 513 1017 l 326 1122 l 144 1017 l 114 1068 z "},"ë":{"ha":647,"x_min":71,"x_max":582,"o":"m 211 421 l 411 421 q 491 445 467 421 q 515 524 515 469 l 515 779 q 491 859 515 835 q 411 883 467 883 l 240 883 q 162 859 186 883 q 138 779 138 835 l 138 165 q 162 85 138 110 q 240 61 186 61 l 403 61 q 483 85 458 61 q 507 165 507 110 l 507 293 l 574 293 l 574 171 q 533 40 574 81 q 403 0 493 0 l 242 0 q 111 40 151 0 q 71 171 71 81 l 71 774 q 111 904 71 864 q 242 944 151 944 l 411 944 q 542 904 501 944 q 582 774 582 864 l 582 531 q 542 400 582 440 q 411 360 501 360 l 211 360 l 211 421 m 168 1100 q 185 1142 168 1125 q 228 1160 203 1160 q 269 1142 251 1160 q 286 1100 286 1125 q 269 1059 286 1076 q 228 1042 251 1042 q 185 1059 203 1042 q 168 1100 168 1076 m 365 1100 q 383 1142 365 1125 q 426 1160 401 1160 q 467 1142 450 1160 q 485 1100 485 1125 q 467 1059 485 1076 q 426 1042 450 1042 q 383 1059 401 1042 q 365 1100 365 1076 z "},"ì":{"ha":222,"x_min":-33,"x_max":226,"o":"m 78 944 l 144 944 l 144 0 l 78 0 l 78 944 m -3 1197 l 226 1065 l 197 1013 l -33 1143 l -3 1197 z "},"í":{"ha":222,"x_min":29,"x_max":289,"o":"m 78 944 l 144 944 l 144 0 l 78 0 l 78 944 m 29 1065 l 258 1197 l 289 1143 l 58 1013 l 29 1065 z "},"î":{"ha":222,"x_min":-103,"x_max":325,"o":"m 78 944 l 144 944 l 144 0 l 78 0 l 78 944 m -103 1068 l 110 1192 l 325 1068 l 296 1017 l 110 1122 l -72 1017 l -103 1068 z "},"ï":{"ha":222,"x_min":-49,"x_max":268,"o":"m 78 944 l 144 944 l 144 0 l 78 0 l 78 944 m -49 1100 q -31 1142 -49 1125 q 11 1160 -14 1160 q 52 1142 35 1160 q 69 1100 69 1125 q 52 1059 69 1076 q 11 1042 35 1042 q -31 1059 -14 1042 q -49 1100 -49 1076 m 149 1100 q 167 1142 149 1125 q 210 1160 185 1160 q 251 1142 233 1160 q 268 1100 268 1125 q 251 1059 268 1076 q 210 1042 233 1042 q 167 1059 185 1042 q 149 1100 149 1076 z "},"ð":{"ha":663,"x_min":67,"x_max":588,"o":"m 242 742 q 160 717 185 742 q 135 635 135 692 l 135 171 q 160 89 135 114 q 242 64 185 64 l 411 64 q 494 89 469 64 q 519 171 519 114 l 519 1015 q 494 1097 519 1072 q 411 1122 469 1122 l 332 1122 l 178 968 l 135 1011 l 246 1122 l 113 1122 l 113 1186 l 310 1186 l 417 1293 l 460 1250 l 396 1186 l 411 1186 q 546 1144 504 1186 q 588 1010 588 1103 l 588 176 q 546 42 588 83 q 411 0 504 0 l 243 0 q 108 42 150 0 q 67 176 67 83 l 67 629 q 108 764 67 722 q 243 806 150 806 l 443 806 l 443 742 l 242 742 z "},"ñ":{"ha":653,"x_min":71,"x_max":582,"o":"m 71 774 q 111 904 71 864 q 242 944 151 944 l 411 944 q 542 904 501 944 q 582 774 582 864 l 582 0 l 515 0 l 515 779 q 491 859 515 835 q 413 883 467 883 l 242 883 q 162 859 186 883 q 138 779 138 835 l 138 0 l 71 0 l 71 774 m 188 1065 l 293 1128 l 368 1085 l 444 1128 l 474 1075 l 368 1015 l 293 1057 l 218 1013 l 188 1065 z "},"ò":{"ha":650,"x_min":69,"x_max":581,"o":"m 69 774 q 110 904 69 864 q 240 944 150 944 l 410 944 q 540 904 500 944 q 581 774 581 864 l 581 171 q 540 40 581 81 q 410 0 500 0 l 240 0 q 110 40 150 0 q 69 171 69 81 l 69 774 m 410 61 q 490 85 465 61 q 514 165 514 110 l 514 779 q 490 859 514 835 q 410 883 465 883 l 239 883 q 160 859 185 883 q 136 779 136 835 l 136 165 q 160 85 136 110 q 239 61 185 61 l 410 61 m 214 1197 l 443 1065 l 414 1013 l 183 1143 l 214 1197 z "},"ó":{"ha":650,"x_min":69,"x_max":581,"o":"m 69 774 q 110 904 69 864 q 240 944 150 944 l 410 944 q 540 904 500 944 q 581 774 581 864 l 581 171 q 540 40 581 81 q 410 0 500 0 l 240 0 q 110 40 150 0 q 69 171 69 81 l 69 774 m 410 61 q 490 85 465 61 q 514 165 514 110 l 514 779 q 490 859 514 835 q 410 883 465 883 l 239 883 q 160 859 185 883 q 136 779 136 835 l 136 165 q 160 85 136 110 q 239 61 185 61 l 410 61 m 247 1065 l 476 1197 l 507 1143 l 276 1013 l 247 1065 z "},"ô":{"ha":650,"x_min":69,"x_max":581,"o":"m 69 774 q 110 904 69 864 q 240 944 150 944 l 410 944 q 540 904 500 944 q 581 774 581 864 l 581 171 q 540 40 581 81 q 410 0 500 0 l 240 0 q 110 40 150 0 q 69 171 69 81 l 69 774 m 410 61 q 490 85 465 61 q 514 165 514 110 l 514 779 q 490 859 514 835 q 410 883 465 883 l 239 883 q 160 859 185 883 q 136 779 136 835 l 136 165 q 160 85 136 110 q 239 61 185 61 l 410 61 m 115 1068 l 328 1192 l 543 1068 l 514 1017 l 328 1122 l 146 1017 l 115 1068 z "},"õ":{"ha":650,"x_min":69,"x_max":581,"o":"m 69 774 q 110 904 69 864 q 240 944 150 944 l 410 944 q 540 904 500 944 q 581 774 581 864 l 581 171 q 540 40 581 81 q 410 0 500 0 l 240 0 q 110 40 150 0 q 69 171 69 81 l 69 774 m 410 61 q 490 85 465 61 q 514 165 514 110 l 514 779 q 490 859 514 835 q 410 883 465 883 l 239 883 q 160 859 185 883 q 136 779 136 835 l 136 165 q 160 85 136 110 q 239 61 185 61 l 410 61 m 186 1065 l 292 1128 l 367 1085 l 443 1128 l 472 1075 l 367 1015 l 292 1057 l 217 1013 l 186 1065 z "},"ö":{"ha":650,"x_min":69,"x_max":581,"o":"m 69 774 q 110 904 69 864 q 240 944 150 944 l 410 944 q 540 904 500 944 q 581 774 581 864 l 581 171 q 540 40 581 81 q 410 0 500 0 l 240 0 q 110 40 150 0 q 69 171 69 81 l 69 774 m 410 61 q 490 85 465 61 q 514 165 514 110 l 514 779 q 490 859 514 835 q 410 883 465 883 l 239 883 q 160 859 185 883 q 136 779 136 835 l 136 165 q 160 85 136 110 q 239 61 185 61 l 410 61 m 169 1100 q 187 1142 169 1125 q 229 1160 204 1160 q 270 1142 253 1160 q 288 1100 288 1125 q 270 1059 288 1076 q 229 1042 253 1042 q 187 1059 204 1042 q 169 1100 169 1076 m 367 1100 q 385 1142 367 1125 q 428 1160 403 1160 q 469 1142 451 1160 q 486 1100 486 1125 q 469 1059 486 1076 q 428 1042 451 1042 q 385 1059 403 1042 q 367 1100 367 1076 z "},"÷":{"ha":739,"x_min":47,"x_max":692,"o":"m 289 371 q 310 420 289 400 q 360 440 331 440 q 408 420 388 440 q 428 371 428 400 q 408 322 428 343 q 360 301 388 301 q 310 322 331 301 q 289 371 289 343 m 289 918 q 310 968 289 947 q 360 989 331 989 q 408 968 388 989 q 428 918 428 947 q 408 870 428 890 q 360 850 388 850 q 310 870 331 850 q 289 918 289 890 m 47 678 l 692 678 l 692 617 l 47 617 l 47 678 z "},"ø":{"ha":650,"x_min":56,"x_max":583,"o":"m 99 54 q 69 171 69 96 l 69 774 q 110 904 69 864 q 240 944 150 944 l 410 944 q 496 932 461 944 l 519 983 l 583 983 l 544 899 q 581 774 581 858 l 581 171 q 540 40 581 81 q 410 0 500 0 l 240 0 q 149 15 186 0 l 122 -42 l 56 -42 l 99 54 m 136 165 q 136 152 136 158 q 138 139 136 146 l 469 872 q 410 883 449 883 l 239 883 q 160 859 185 883 q 136 779 136 835 l 136 165 m 410 61 q 490 85 465 61 q 514 165 514 110 l 514 779 q 510 821 514 803 l 175 75 q 239 61 197 61 l 410 61 z "},"ù":{"ha":649,"x_min":71,"x_max":578,"o":"m 138 944 l 138 165 q 162 85 138 110 q 242 61 186 61 l 408 61 q 488 85 464 61 q 513 165 513 110 l 513 944 l 578 944 l 578 171 q 538 40 578 81 q 407 0 497 0 l 242 0 q 111 40 151 0 q 71 171 71 81 l 71 944 l 138 944 m 211 1197 l 440 1065 l 411 1013 l 181 1143 l 211 1197 z "},"ú":{"ha":649,"x_min":71,"x_max":578,"o":"m 138 944 l 138 165 q 162 85 138 110 q 242 61 186 61 l 408 61 q 488 85 464 61 q 513 165 513 110 l 513 944 l 578 944 l 578 171 q 538 40 578 81 q 407 0 497 0 l 242 0 q 111 40 151 0 q 71 171 71 81 l 71 944 l 138 944 m 243 1065 l 472 1197 l 503 1143 l 272 1013 l 243 1065 z "},"û":{"ha":649,"x_min":71,"x_max":578,"o":"m 138 944 l 138 165 q 162 85 138 110 q 242 61 186 61 l 408 61 q 488 85 464 61 q 513 165 513 110 l 513 944 l 578 944 l 578 171 q 538 40 578 81 q 407 0 497 0 l 242 0 q 111 40 151 0 q 71 171 71 81 l 71 944 l 138 944 m 113 1068 l 325 1192 l 540 1068 l 511 1017 l 325 1122 l 143 1017 l 113 1068 z "},"ü":{"ha":649,"x_min":71,"x_max":578,"o":"m 138 944 l 138 165 q 162 85 138 110 q 242 61 186 61 l 408 61 q 488 85 464 61 q 513 165 513 110 l 513 944 l 578 944 l 578 171 q 538 40 578 81 q 407 0 497 0 l 242 0 q 111 40 151 0 q 71 171 71 81 l 71 944 l 138 944 m 167 1100 q 184 1142 167 1125 q 226 1160 201 1160 q 267 1142 250 1160 q 285 1100 285 1125 q 267 1059 285 1076 q 226 1042 250 1042 q 184 1059 201 1042 q 167 1100 167 1076 m 364 1100 q 382 1142 364 1125 q 425 1160 400 1160 q 466 1142 449 1160 q 483 1100 483 1125 q 466 1059 483 1076 q 425 1042 449 1042 q 382 1059 400 1042 q 364 1100 364 1076 z "},"ý":{"ha":653,"x_min":71,"x_max":571,"o":"m 236 -175 l 400 -175 q 480 -151 456 -175 q 504 -71 504 -126 l 504 32 q 397 0 471 0 l 242 0 q 111 40 151 0 q 71 171 71 81 l 71 944 l 136 944 l 136 165 q 160 85 136 110 q 240 61 185 61 l 400 61 q 480 85 456 61 q 504 165 504 110 l 504 944 l 571 944 l 571 -65 q 531 -196 571 -156 q 400 -236 490 -236 l 236 -236 l 236 -175 m 246 1065 l 475 1197 l 506 1143 l 275 1013 l 246 1065 z "},"þ":{"ha":658,"x_min":76,"x_max":593,"o":"m 76 1194 l 143 1194 l 143 944 l 422 944 q 553 904 513 944 q 593 774 593 864 l 593 171 q 553 40 593 81 q 422 0 513 0 l 143 0 l 143 -236 l 76 -236 l 76 1194 m 422 61 q 502 85 478 61 q 526 165 526 110 l 526 779 q 502 859 526 835 q 422 883 478 883 l 143 883 l 143 61 l 422 61 z "},"ÿ":{"ha":653,"x_min":71,"x_max":571,"o":"m 236 -175 l 400 -175 q 480 -151 456 -175 q 504 -71 504 -126 l 504 32 q 397 0 471 0 l 242 0 q 111 40 151 0 q 71 171 71 81 l 71 944 l 136 944 l 136 165 q 160 85 136 110 q 240 61 185 61 l 400 61 q 480 85 456 61 q 504 165 504 110 l 504 944 l 571 944 l 571 -65 q 531 -196 571 -156 q 400 -236 490 -236 l 236 -236 l 236 -175 m 168 1100 q 185 1142 168 1125 q 228 1160 203 1160 q 269 1142 251 1160 q 286 1100 286 1125 q 269 1059 286 1076 q 228 1042 251 1042 q 185 1059 203 1042 q 168 1100 168 1076 m 365 1100 q 383 1142 365 1125 q 426 1160 401 1160 q 467 1142 450 1160 q 485 1100 485 1125 q 467 1059 485 1076 q 426 1042 450 1042 q 383 1059 401 1042 q 365 1100 365 1076 z "},"Đ":{"ha":732,"x_min":1,"x_max":658,"o":"m 1 610 l 76 610 l 76 1153 l 482 1153 q 617 1111 575 1153 q 658 976 658 1069 l 658 176 q 617 42 658 83 q 482 0 575 0 l 76 0 l 76 549 l 1 549 l 1 610 m 482 64 q 565 89 540 64 q 590 171 590 114 l 590 982 q 565 1064 590 1039 q 482 1089 540 1089 l 146 1089 l 146 610 l 454 610 l 454 549 l 146 549 l 146 64 l 482 64 z "},"đ":{"ha":658,"x_min":65,"x_max":658,"o":"m 218 1094 l 513 1094 l 513 1194 l 579 1194 l 579 1094 l 658 1094 l 658 1044 l 579 1044 l 579 171 q 539 40 579 81 q 408 0 499 0 l 236 0 q 106 40 146 0 q 65 171 65 81 l 65 774 q 106 904 65 864 q 236 944 146 944 l 406 944 q 513 914 478 944 l 513 1044 l 218 1044 l 218 1094 m 408 61 q 488 85 464 61 q 513 165 513 110 l 513 779 q 488 859 513 835 q 408 883 464 883 l 235 883 q 156 859 181 883 q 132 779 132 835 l 132 165 q 156 85 132 110 q 235 61 181 61 l 408 61 z "},"ı":{"ha":222,"x_min":78,"x_max":144,"o":"m 78 944 l 144 944 l 144 0 l 78 0 l 78 944 z "},"Ł":{"ha":607,"x_min":-10,"x_max":597,"o":"m -10 228 l 76 314 l 76 1153 l 146 1153 l 146 382 l 422 658 l 468 613 l 146 290 l 146 169 q 170 89 146 114 q 251 64 194 64 l 597 64 l 597 0 l 247 0 q 117 40 157 0 q 76 171 76 81 l 76 221 l 36 182 l -10 228 z "},"ł":{"ha":335,"x_min":-7,"x_max":371,"o":"m 76 300 l 35 260 l -7 301 l 76 383 l 76 1194 l 143 1194 l 143 450 l 329 639 l 371 597 l 143 367 l 143 0 l 76 0 l 76 300 z "},"Œ":{"ha":1022,"x_min":75,"x_max":979,"o":"m 578 35 q 453 0 535 0 l 251 0 q 117 42 158 0 q 75 176 75 83 l 75 976 q 117 1111 75 1069 q 251 1153 158 1153 l 453 1153 q 578 1118 535 1153 l 578 1153 l 974 1153 l 974 1089 l 629 1089 l 629 640 l 875 640 l 875 576 l 629 576 l 629 64 l 979 64 l 979 0 l 578 0 l 578 35 m 454 64 q 536 89 511 64 q 561 171 561 114 l 561 982 q 536 1064 561 1039 q 454 1089 511 1089 l 251 1089 q 169 1064 194 1089 q 144 982 144 1039 l 144 171 q 169 89 144 114 q 251 64 194 64 l 454 64 z "},"œ":{"ha":1040,"x_min":69,"x_max":975,"o":"m 622 411 l 806 411 q 884 435 860 411 q 908 514 908 460 l 908 779 q 884 859 908 835 q 806 883 860 883 l 658 883 q 580 859 604 883 q 556 779 556 835 l 556 165 q 580 85 556 110 q 658 61 604 61 l 797 61 q 876 85 851 61 q 900 165 900 110 l 900 257 l 967 257 l 967 171 q 926 40 967 81 q 796 0 886 0 l 660 0 q 522 56 560 0 q 385 0 485 0 l 240 0 q 110 40 150 0 q 69 171 69 81 l 69 774 q 110 904 69 864 q 240 944 150 944 l 385 944 q 522 889 485 944 q 660 944 560 944 l 804 944 q 935 904 894 944 q 975 774 975 864 l 975 521 q 935 390 975 431 q 804 350 894 350 l 622 350 l 622 411 m 386 61 q 465 85 440 61 q 489 165 489 110 l 489 779 q 465 859 489 835 q 386 883 440 883 l 239 883 q 160 859 185 883 q 136 779 136 835 l 136 165 q 160 85 136 110 q 239 61 185 61 l 386 61 z "},"Š":{"ha":713,"x_min":65,"x_max":647,"o":"m 135 364 l 135 171 q 159 89 135 114 q 242 64 183 64 l 471 64 q 554 89 529 64 q 579 171 579 114 l 579 457 q 554 540 579 515 q 471 565 529 565 l 244 565 q 110 607 151 565 q 68 742 68 649 l 68 976 q 110 1111 68 1069 q 244 1153 151 1153 l 457 1153 q 592 1111 550 1153 q 633 976 633 1069 l 633 790 l 565 790 l 565 982 q 540 1064 565 1039 q 457 1089 515 1089 l 244 1089 q 162 1064 186 1089 q 138 982 138 1039 l 138 736 q 162 653 138 678 q 244 629 186 629 l 471 629 q 606 587 564 629 q 647 451 647 544 l 647 176 q 606 42 647 83 q 471 0 564 0 l 242 0 q 107 42 149 0 q 65 176 65 83 l 65 364 l 135 364 m 174 1400 l 356 1294 l 542 1400 l 571 1347 l 356 1224 l 143 1347 l 174 1400 z "},"š":{"ha":606,"x_min":65,"x_max":540,"o":"m 132 296 l 132 165 q 156 85 132 110 q 235 61 181 61 l 371 61 q 449 85 425 61 q 474 165 474 110 l 474 347 q 449 426 474 401 q 371 450 425 450 l 239 450 q 108 490 149 450 q 68 621 68 531 l 68 774 q 108 904 68 864 q 239 944 149 944 l 356 944 q 486 904 446 944 q 526 774 526 864 l 526 649 l 460 649 l 460 779 q 435 859 460 835 q 357 883 411 883 l 238 883 q 159 859 183 883 q 135 779 135 835 l 135 614 q 159 534 135 558 q 238 510 183 510 l 369 510 q 500 469 460 510 q 540 339 540 429 l 540 171 q 500 40 540 81 q 369 0 460 0 l 236 0 q 106 40 146 0 q 65 171 65 81 l 65 296 l 132 296 m 118 1192 l 300 1086 l 486 1192 l 515 1139 l 300 1015 l 88 1139 l 118 1192 z "},"Ÿ":{"ha":699,"x_min":65,"x_max":633,"o":"m 317 324 l 242 324 q 107 366 149 324 q 65 501 65 408 l 65 1153 l 135 1153 l 135 496 q 159 413 135 438 q 242 388 183 388 l 457 388 q 540 413 515 388 q 565 496 565 438 l 565 1153 l 633 1153 l 633 501 q 592 366 633 408 q 457 324 550 324 l 385 324 l 385 0 l 317 0 l 317 324 m 188 1308 q 205 1351 188 1333 q 247 1368 222 1368 q 288 1351 271 1368 q 306 1308 306 1333 q 288 1267 306 1285 q 247 1250 271 1250 q 205 1267 222 1250 q 188 1308 188 1285 m 385 1308 q 403 1351 385 1333 q 446 1368 421 1368 q 487 1351 469 1368 q 504 1308 504 1333 q 487 1267 504 1285 q 446 1250 469 1250 q 403 1267 421 1250 q 385 1308 385 1285 z "},"Ž":{"ha":654,"x_min":42,"x_max":613,"o":"m 42 81 l 543 1089 l 47 1089 l 47 1153 l 610 1153 l 610 1072 l 107 64 l 613 64 l 613 0 l 42 0 l 42 81 m 149 1400 l 331 1294 l 517 1400 l 546 1347 l 331 1224 l 118 1347 l 149 1400 z "},"ž":{"ha":550,"x_min":29,"x_max":521,"o":"m 29 58 l 444 883 l 39 883 l 39 944 l 517 944 l 517 886 l 100 61 l 521 61 l 521 0 l 29 0 l 29 58 m 86 1192 l 268 1086 l 454 1192 l 483 1139 l 268 1015 l 56 1139 l 86 1192 z "},"ƒ":{"ha":475,"x_min":3,"x_max":475,"o":"m 3 -175 l 82 -175 q 160 -151 136 -175 q 185 -71 185 -126 l 185 883 l 110 883 l 110 944 l 185 944 l 185 982 q 225 1113 185 1072 q 356 1153 265 1153 l 475 1153 l 475 1092 l 356 1092 q 276 1067 300 1092 q 251 988 251 1043 l 251 944 l 429 944 l 429 883 l 251 883 l 251 -65 q 211 -196 251 -156 q 81 -236 171 -236 l 3 -236 l 3 -175 z "},"ˆ":{"ha":789,"x_min":181,"x_max":608,"o":"m 181 790 l 393 914 l 608 790 l 579 739 l 393 844 l 211 739 l 181 790 z "},"ˇ":{"ha":789,"x_min":181,"x_max":608,"o":"m 211 914 l 393 808 l 579 914 l 608 861 l 393 738 l 181 861 l 211 914 z "},"˘":{"ha":665,"x_min":163,"x_max":504,"o":"m 163 867 l 226 867 l 226 801 l 440 801 l 440 867 l 504 867 l 504 746 l 163 746 l 163 867 z "},"˙":{"ha":507,"x_min":194,"x_max":313,"o":"m 194 822 q 212 865 194 847 q 254 882 229 882 q 295 865 278 882 q 313 822 313 847 q 295 781 313 799 q 254 764 278 764 q 212 781 229 764 q 194 822 194 799 z "},"˚":{"ha":440,"x_min":110,"x_max":331,"o":"m 110 832 q 142 910 110 878 q 221 943 175 943 q 298 910 265 943 q 331 832 331 878 q 298 755 331 788 q 221 722 265 722 q 142 755 175 722 q 110 832 110 788 m 164 832 q 181 791 164 808 q 221 774 197 774 q 260 791 244 774 q 276 832 276 808 q 260 873 276 856 q 221 890 244 890 q 181 873 197 890 q 164 832 164 856 z "},"˛":{"ha":325,"x_min":31,"x_max":228,"o":"m 228 -232 q 167 -240 199 -240 q 70 -210 110 -240 q 31 -122 31 -181 q 64 -31 31 -72 q 165 18 97 11 l 165 -35 q 106 -67 125 -42 q 88 -121 88 -92 q 111 -173 88 -156 q 168 -190 135 -190 q 219 -178 194 -190 l 228 -232 z "},"˜":{"ha":1069,"x_min":392,"x_max":678,"o":"m 392 788 l 497 850 l 572 807 l 649 850 l 678 797 l 572 738 l 497 779 l 422 735 l 392 788 z "},"˝":{"ha":704,"x_min":182,"x_max":522,"o":"m 339 983 l 388 944 l 231 738 l 182 776 l 339 983 m 474 983 l 522 944 l 365 738 l 318 776 l 474 983 z "},"μ":{"ha":650,"x_min":76,"x_max":588,"o":"m 76 944 l 143 944 l 143 61 l 417 61 q 497 85 472 61 q 521 165 521 110 l 521 944 l 588 944 l 588 171 q 547 40 588 81 q 417 0 507 0 l 143 0 l 143 -236 l 76 -236 l 76 944 z "},"–":{"ha":1279,"x_min":47,"x_max":1232,"o":"m 47 503 l 1232 503 l 1232 442 l 47 442 l 47 503 z "},"—":{"ha":1664,"x_min":47,"x_max":1617,"o":"m 47 503 l 1617 503 l 1617 442 l 47 442 l 47 503 z "},"‘":{"ha":169,"x_min":50,"x_max":119,"o":"m 50 903 l 68 1194 l 119 1194 l 119 869 l 50 869 l 50 903 z "},"’":{"ha":171,"x_min":51,"x_max":119,"o":"m 51 1194 l 119 1194 l 119 1161 l 103 869 l 51 869 l 51 1194 z "},"‚":{"ha":172,"x_min":51,"x_max":119,"o":"m 51 78 l 119 78 l 119 3 l 103 -236 l 51 -236 l 51 78 z "},"“":{"ha":325,"x_min":50,"x_max":275,"o":"m 50 903 l 68 1194 l 119 1194 l 119 869 l 50 869 l 50 903 m 206 903 l 224 1194 l 275 1194 l 275 869 l 206 869 l 206 903 z "},"”":{"ha":325,"x_min":51,"x_max":274,"o":"m 51 1194 l 119 1194 l 119 1161 l 103 869 l 51 869 l 51 1194 m 206 1194 l 274 1194 l 274 1161 l 257 869 l 206 869 l 206 1194 z "},"„":{"ha":331,"x_min":51,"x_max":278,"o":"m 51 79 l 119 79 l 119 3 l 103 -236 l 51 -236 l 51 79 m 208 79 l 278 79 l 278 3 l 261 -236 l 208 -236 l 208 79 z "},"†":{"ha":575,"x_min":76,"x_max":499,"o":"m 253 882 l 76 882 l 76 943 l 253 943 l 253 1194 l 322 1194 l 322 943 l 499 943 l 499 882 l 322 882 l 322 0 l 253 0 l 253 882 z "},"‡":{"ha":575,"x_min":76,"x_max":499,"o":"m 253 251 l 76 251 l 76 313 l 253 313 l 253 882 l 76 882 l 76 943 l 253 943 l 253 1194 l 322 1194 l 322 943 l 499 943 l 499 882 l 322 882 l 322 313 l 499 313 l 499 251 l 322 251 l 322 0 l 253 0 l 253 251 z "},"•":{"ha":488,"x_min":67,"x_max":421,"o":"m 67 472 q 81 542 67 510 q 119 598 94 574 q 175 636 143 622 q 243 650 207 650 q 313 636 281 650 q 369 598 344 622 q 407 542 393 574 q 421 472 421 510 q 407 404 421 436 q 369 348 393 372 q 313 310 344 324 q 243 296 281 296 q 175 310 207 296 q 119 348 143 324 q 81 404 94 372 q 67 472 67 436 z "},"…":{"ha":676,"x_min":44,"x_max":614,"o":"m 44 50 q 62 93 44 75 q 104 111 79 111 q 145 93 128 111 q 163 50 163 75 q 145 9 163 26 q 104 -8 128 -8 q 62 9 79 -8 q 44 50 44 26 m 269 50 q 287 93 269 75 q 329 111 304 111 q 370 93 353 111 q 388 50 388 75 q 370 9 388 26 q 329 -8 353 -8 q 287 9 304 -8 q 269 50 269 26 m 496 50 q 513 93 496 75 q 556 111 531 111 q 597 93 579 111 q 614 50 614 75 q 597 9 614 26 q 556 -8 579 -8 q 513 9 531 -8 q 496 50 496 26 z "},"‰":{"ha":1883,"x_min":65,"x_max":1807,"o":"m 893 1167 l 950 1144 l 438 -14 l 381 8 l 893 1167 m 808 615 q 849 744 808 704 q 978 785 889 785 l 1106 785 q 1234 744 1194 785 q 1274 615 1274 704 l 1274 169 q 1234 40 1274 81 q 1106 0 1194 0 l 978 0 q 849 40 889 0 q 808 169 808 81 l 808 615 m 1342 610 q 1382 739 1342 699 q 1511 779 1422 779 l 1638 779 q 1767 739 1726 779 q 1807 610 1807 699 l 1807 164 q 1767 35 1807 75 q 1638 -6 1726 -6 l 1511 -6 q 1382 35 1422 -6 q 1342 164 1342 75 l 1342 610 m 65 983 q 106 1113 65 1072 q 235 1153 146 1153 l 361 1153 q 490 1113 450 1153 q 531 983 531 1072 l 531 538 q 490 408 531 449 q 361 368 450 368 l 235 368 q 106 408 146 368 q 65 538 65 449 l 65 983 m 1108 58 q 1188 82 1164 58 q 1211 161 1211 106 l 1211 624 q 1188 703 1211 679 q 1108 726 1164 726 l 975 726 q 896 703 919 726 q 872 624 872 679 l 872 161 q 896 82 872 106 q 975 58 919 58 l 1108 58 m 1642 53 q 1719 76 1696 53 q 1743 156 1743 100 l 1743 618 q 1719 697 1743 674 q 1642 721 1696 721 l 1507 721 q 1429 697 1453 721 q 1406 618 1406 674 l 1406 156 q 1429 76 1406 100 q 1507 53 1453 53 l 1642 53 m 365 426 q 443 450 419 426 q 467 529 467 474 l 467 992 q 443 1071 467 1047 q 365 1094 419 1094 l 231 1094 q 153 1071 176 1094 q 129 992 129 1047 l 129 529 q 153 450 129 474 q 231 426 176 426 l 365 426 z "},"‹":{"ha":332,"x_min":31,"x_max":283,"o":"m 31 486 l 226 824 l 283 792 l 106 486 l 283 181 l 226 149 l 31 486 z "},"›":{"ha":332,"x_min":49,"x_max":301,"o":"m 226 486 l 49 792 l 106 824 l 301 486 l 106 149 l 49 181 l 226 486 z "},"⁄":{"ha":304,"x_min":-133,"x_max":438,"o":"m 379 1167 l 438 1144 l -76 -14 l -133 8 l 379 1167 z "},"€":{"ha":736,"x_min":0,"x_max":596,"o":"m 0 714 l 74 714 l 74 976 q 116 1111 74 1069 q 251 1153 158 1153 l 596 1153 l 596 1089 l 250 1089 q 168 1064 193 1089 q 143 982 143 1039 l 143 714 l 556 714 l 556 656 l 143 656 l 143 497 l 489 497 l 489 439 l 143 439 l 143 171 q 168 89 143 114 q 250 64 193 64 l 596 64 l 596 0 l 251 0 q 116 42 158 0 q 74 176 74 83 l 74 439 l 0 439 l 0 497 l 74 497 l 74 656 l 0 656 l 0 714 z "},"™":{"ha":947,"x_min":65,"x_max":871,"o":"m 219 1094 l 65 1094 l 65 1153 l 438 1153 l 438 1094 l 283 1094 l 283 594 l 219 594 l 219 1094 m 653 699 l 549 1007 l 549 594 l 485 594 l 485 1153 l 554 1153 l 676 790 l 799 1153 l 871 1153 l 871 594 l 808 594 l 808 1011 l 701 699 l 653 699 z "},"−":{"ha":739,"x_min":47,"x_max":692,"o":"m 47 678 l 692 678 l 692 617 l 47 617 l 47 678 z "},"":{"ha":1288,"x_min":29,"x_max":1258,"o":"m 29 721 l 644 1169 l 1258 721 l 1024 0 l 264 0 l 29 721 m 644 64 l 975 64 l 1181 696 l 644 1088 l 107 696 l 313 64 l 644 525 l 644 64 z "},"ﬁ":{"ha":571,"x_min":6,"x_max":518,"o":"m 76 883 l 6 883 l 6 944 l 76 944 l 76 1024 q 117 1154 76 1114 q 247 1194 157 1194 l 364 1194 l 364 1133 l 246 1133 q 167 1109 192 1133 q 143 1029 143 1085 l 143 944 l 490 944 l 490 0 l 425 0 l 425 883 l 143 883 l 143 -236 l 76 -236 l 76 883 m 397 1164 q 415 1206 397 1189 q 458 1224 432 1224 q 500 1206 482 1224 q 518 1164 518 1189 q 500 1122 518 1139 q 458 1104 482 1104 q 415 1122 432 1104 q 397 1164 397 1139 z "},"ﬂ":{"ha":614,"x_min":6,"x_max":538,"o":"m 76 883 l 6 883 l 6 944 l 76 944 l 76 1024 q 117 1154 76 1114 q 247 1194 157 1194 l 538 1194 l 538 0 l 471 0 l 471 1133 l 246 1133 q 167 1109 192 1133 q 143 1029 143 1085 l 143 944 l 299 944 l 299 883 l 143 883 l 143 -236 l 76 -236 l 76 883 z "}}}
